<?xml version="1.0" standalone="no"?>
<!DOCTYPE svg PUBLIC "-//W3C//DTD SVG 20010904//EN"
 "http://www.w3.org/TR/2001/REC-SVG-20010904/DTD/svg10.dtd">
<svg version="1.0" xmlns="http://www.w3.org/2000/svg"
 width="416.000000pt" height="511.000000pt" viewBox="0 0 416.000000 511.000000"
 preserveAspectRatio="xMidYMid meet">

<g transform="translate(0.000000,511.000000) scale(0.100000,-0.100000)"
fill="#000000" stroke="none">
<path d="M12 5098 c-16 -16 -17 -3475 -2 -3612 38 -330 190 -621 461 -881 333
-320 756 -509 1314 -587 116 -16 494 -16 610 0 310 44 539 110 780 227 549
265 914 723 975 1225 15 130 14 3612 -2 3628 -17 17 -4119 17 -4136 0z m4118
-1797 c0 -1720 -1 -1783 -20 -1893 -117 -684 -783 -1226 -1662 -1355 -152 -22
-545 -25 -683 -5 -452 66 -804 204 -1107 433 -324 244 -520 533 -601 884 -21
89 -21 102 -24 1903 l-3 1812 2050 0 2050 0 0 -1779z"/>
<path d="M115 4968 c-3 -13 -4 -797 -2 -1743 3 -1876 -1 -1735 58 -1930 146
-485 626 -904 1232 -1079 234 -68 435 -96 685 -96 190 0 310 11 480 46 420 86
766 260 1036 523 227 221 350 435 423 737 16 63 17 213 20 1794 2 949 1 1735
-2 1748 l-5 22 -1960 0 -1960 0 -5 -22z m3895 -15 c0 -5 -866 -7 -1925 -5
l-1925 2 -3 -1702 -2 -1703 -3 1708 -2 1707 1930 0 c1062 0 1930 -3 1930 -7z
m-1945 -153 c4 -6 11 -8 16 -5 5 4 8 -18 8 -52 -1 -32 -4 -48 -6 -36 -4 20 -7
22 -26 11 -12 -6 -25 -16 -29 -22 -5 -7 -8 -5 -8 5 0 10 11 20 24 23 29 7 43
41 26 61 -6 8 -28 16 -48 18 l-37 4 37 1 c20 1 40 -3 43 -8z m93 3 c-10 -2
-28 -2 -40 0 -13 2 -5 4 17 4 22 1 32 -1 23 -4z m122 -8 c9 -11 16 -12 26 -4
7 6 19 9 26 6 9 -4 8 -6 -3 -6 -18 -1 -29 -29 -29 -75 0 -28 -1 -29 -14 -11
-12 16 -12 22 0 40 12 19 12 24 -3 38 -10 8 -34 17 -53 20 l-35 4 36 1 c22 1
42 -4 49 -13z m-422 -7 c7 -1 12 -15 12 -36 0 -31 -2 -33 -17 -21 -28 21 -29
23 -10 16 27 -10 21 22 -7 34 -17 8 -29 8 -45 0 -32 -18 -27 -49 12 -67 l32
-15 -30 6 c-32 7 -45 20 -45 47 0 23 41 50 65 43 11 -4 26 -7 33 -7z m106
-105 c-10 -7 -23 -13 -28 -12 -6 0 -1 5 12 11 18 9 22 20 24 67 l2 56 3 -55
c3 -43 1 -57 -13 -67z m223 60 c0 -38 -2 -45 -4 -20 -4 34 -7 37 -36 39 l-32
1 33 4 c19 3 32 10 32 19 0 8 2 14 4 14 2 0 3 -26 3 -57z m273 15 c0 -7 6 -4
13 6 8 11 21 16 33 13 17 -4 17 -5 -3 -6 -22 -1 -27 -10 -37 -72 -4 -20 -12
-36 -19 -37 -6 0 -23 -3 -37 -7 -19 -4 -17 -2 7 9 17 8 34 24 38 36 8 24 -1
70 -13 70 -5 0 -17 7 -28 15 -17 14 -15 14 14 0 17 -8 32 -21 32 -27z m-534
-5 c-5 -28 -4 -34 3 -23 9 13 11 13 11 -2 0 -10 -7 -18 -15 -18 -10 0 -15 10
-15 33 0 31 6 47 18 47 2 0 1 -17 -2 -37z m446 21 c-27 -19 -30 -69 -4 -97 16
-19 16 -20 -5 -8 -19 10 -23 20 -23 62 0 28 4 48 9 44 5 -3 12 -1 16 5 3 5 11
10 18 10 6 0 1 -7 -11 -16z m-825 -6 c-9 -7 -24 -22 -33 -33 -8 -11 -12 -13
-8 -5 11 24 36 50 47 50 6 0 3 -6 -6 -12z m103 -13 c7 -8 16 -12 21 -9 5 3 9
-3 9 -12 0 -15 -4 -14 -27 7 -16 13 -30 25 -32 27 -2 1 0 2 6 2 6 0 16 -7 23
-15z m390 5 c0 -5 -4 -10 -10 -10 -5 0 -10 5 -10 10 0 6 5 10 10 10 6 0 10 -4
10 -10z m220 0 c0 -5 -7 -10 -15 -10 -8 0 -15 5 -15 10 0 6 7 10 15 10 8 0 15
-4 15 -10z m308 -2 c15 -15 16 -55 2 -63 -6 -4 -8 -16 -5 -28 5 -20 5 -20 -6
-4 -8 14 -8 22 0 30 19 19 13 57 -11 67 -14 5 -17 9 -7 9 8 1 20 -4 27 -11z
m-967 -17 c1 21 15 -20 22 -62 5 -32 2 -38 -25 -53 -43 -26 -94 -15 -102 22
-4 15 -9 35 -12 45 -3 9 -1 17 5 17 6 0 11 -13 11 -29 0 -51 44 -76 91 -51 37
20 14 110 -28 110 -8 0 -11 5 -8 11 5 7 14 4 26 -7 15 -13 19 -14 20 -3z m116
-13 c-3 -7 -5 -2 -5 12 0 14 2 19 5 13 2 -7 2 -19 0 -25z m690 15 c-13 -3 -17
-11 -14 -24 3 -10 1 -19 -4 -19 -5 0 -9 11 -9 25 0 20 5 25 23 24 18 -1 19 -2
4 -6z m250 1 c-3 -3 -12 -4 -19 -1 -8 3 -5 6 6 6 11 1 17 -2 13 -5z m-117 -20
c0 -2 -7 -4 -15 -4 -8 0 -15 4 -15 10 0 5 7 7 15 4 8 -4 15 -8 15 -10z m164 7
c4 -5 -3 -7 -14 -4 -23 6 -26 13 -6 13 8 0 17 -4 20 -9z m-534 -11 c0 -5 -11
-10 -25 -10 -14 0 -25 5 -25 10 0 6 11 10 25 10 14 0 25 -4 25 -10z m563 -5
c-3 -9 -8 -14 -10 -11 -3 3 -2 9 2 15 9 16 15 13 8 -4z m-454 -36 c11 0 12 -2
3 -6 -15 -6 -52 24 -51 41 0 6 7 1 16 -11 8 -13 23 -23 32 -24z m-866 24 c-7
-2 -19 -2 -25 0 -7 3 -2 5 12 5 14 0 19 -2 13 -5z m162 -13 c7 -23 -1 -40 -20
-40 -16 0 -29 35 -20 50 10 17 33 11 40 -10z m152 -12 c-3 -7 -5 -2 -5 12 0
14 2 19 5 13 2 -7 2 -19 0 -25z m177 -7 c-2 -2 -10 1 -17 8 -11 9 -17 8 -27
-4 -7 -8 -20 -15 -29 -14 -11 0 -9 3 7 9 12 5 25 16 28 24 5 12 8 12 23 -2 10
-9 16 -19 15 -21z m741 7 c-4 -18 -11 -40 -16 -48 -6 -10 -7 -4 -2 15 4 17 7
38 7 48 0 9 4 17 9 17 5 0 5 -15 2 -32z m162 26 c-3 -3 -12 -4 -19 -1 -8 3 -5
6 6 6 11 1 17 -2 13 -5z m-1455 -33 c-9 -16 -18 -28 -21 -26 -4 5 27 55 34 55
2 0 -4 -13 -13 -29z m87 -7 c-12 -16 -12 -17 3 -11 13 4 18 -1 23 -23 3 -16
12 -31 18 -33 7 -2 2 -3 -9 -1 -12 2 -27 -3 -34 -11 -26 -31 -78 -13 -125 43
-18 22 -33 31 -44 27 -13 -5 -13 -4 -4 6 10 10 19 7 41 -14 16 -15 31 -25 34
-21 4 3 9 -4 13 -15 3 -12 18 -24 32 -27 54 -14 85 41 36 63 -14 7 -29 11 -31
8 -9 -8 8 -36 18 -30 5 3 10 1 10 -4 0 -20 -29 -11 -35 10 -8 25 0 34 28 34
15 0 22 6 20 19 -1 13 2 15 10 7 7 -7 6 -15 -4 -27z m269 -15 c11 0 13 -2 4
-6 -7 -3 -19 0 -26 6 -10 9 -15 8 -20 -4 -3 -8 -11 -15 -18 -15 -10 0 -10 2 1
9 9 6 12 18 7 37 l-6 29 21 -27 c11 -16 28 -28 37 -29z m77 31 c16 -17 16 -20
3 -15 -9 4 -19 13 -22 21 -7 19 -2 18 19 -6z m929 -14 c-3 -11 -8 -29 -11 -39
-3 -10 -7 -17 -9 -15 -2 3 1 19 6 37 7 27 7 32 -5 27 -9 -3 -15 0 -15 8 0 9 7
12 20 9 15 -4 19 -11 14 -27z m-174 -23 c6 -7 7 -13 2 -13 -10 0 -42 44 -42
57 0 4 7 -1 15 -12 8 -11 19 -26 25 -32z m-523 31 c-3 -3 -12 -4 -19 -1 -8 3
-5 6 6 6 11 1 17 -2 13 -5z m141 -1 c-10 -2 -28 -2 -40 0 -13 2 -5 4 17 4 22
1 32 -1 23 -4z m627 -3 c13 -6 15 -9 5 -9 -8 0 -22 4 -30 9 -18 12 -2 12 25 0z
m52 -3 c-8 -7 -19 -21 -25 -32 -10 -17 -11 -17 -12 -3 0 9 5 20 10 23 6 4 8
10 6 14 -3 4 5 8 16 8 17 2 18 0 5 -10z m78 -9 c22 -23 22 -23 3 -69 -17 -41
-22 -46 -50 -44 -21 1 -41 14 -65 38 -19 21 -41 37 -49 37 -8 0 -14 5 -14 11
0 15 43 0 54 -19 13 -23 54 -62 64 -62 4 0 17 6 28 14 15 12 16 17 7 27 -10
10 -15 9 -27 -1 -13 -10 -17 -9 -22 4 -9 23 3 46 23 45 17 -1 17 -2 1 -6 -10
-2 -18 -13 -18 -24 0 -18 1 -19 25 -3 13 8 29 13 35 9 18 -11 11 21 -10 43
-12 12 -17 22 -13 22 4 0 17 -10 28 -22z m-238 -20 c-3 -8 -6 -5 -6 6 -1 11 2
17 5 13 3 -3 4 -12 1 -19z m302 -10 c5 -14 10 -17 15 -10 4 7 13 12 19 12 7 0
4 -5 -5 -11 -10 -5 -18 -18 -19 -27 0 -9 -5 -3 -11 13 -6 17 -16 33 -22 37 -8
5 -7 8 2 8 7 0 16 -10 21 -22z m-1759 -13 c6 -8 9 -18 6 -24 -3 -5 0 -12 6
-14 7 -3 -2 -4 -19 -3 -27 3 -33 0 -33 -15 0 -21 16 -26 23 -6 3 7 6 4 6 -6 2
-31 -34 -16 -37 16 -3 23 0 27 20 24 15 -1 23 3 23 13 0 9 -11 16 -27 18 -39
5 -65 -37 -48 -78 22 -53 82 -51 105 3 9 20 14 25 15 14 0 -27 -47 -69 -73
-66 -13 2 -32 -7 -49 -24 -29 -29 -62 -35 -74 -15 -6 9 -10 5 -14 -11 -3 -13
-18 -33 -33 -45 -24 -17 -31 -19 -48 -8 -17 11 -25 11 -44 -2 -14 -9 -26 -12
-30 -6 -3 5 5 12 18 15 21 6 25 17 18 54 -1 3 -12 -6 -26 -19 -14 -13 -28 -21
-31 -17 -3 3 3 12 15 19 19 12 29 38 15 38 -10 0 -74 -41 -74 -47 0 -3 8 -17
18 -31 26 -37 34 -52 29 -52 -2 0 -16 18 -31 41 -20 29 -24 44 -17 53 23 28
152 97 170 91 14 -4 18 -1 17 11 0 9 6 19 14 21 12 4 12 3 2 -5 -11 -8 -10
-17 7 -50 11 -22 26 -44 31 -47 17 -11 58 4 69 24 12 22 -19 91 -47 104 -12 5
-10 6 7 3 17 -4 30 2 43 20 22 27 59 32 78 9z m1812 -30 c-2 -14 -8 -28 -13
-31 -18 -11 -8 -53 17 -73 15 -12 22 -21 17 -21 -5 0 -21 13 -36 28 l-27 29
20 46 c24 53 29 59 22 22z m-287 5 c13 -6 15 -9 5 -9 -8 0 -22 4 -30 9 -18 12
-2 12 25 0z m363 -6 c40 -27 44 -48 19 -92 -12 -21 -27 -37 -34 -35 -6 2 -1
14 14 29 35 35 28 74 -17 96 -19 10 -28 18 -20 18 9 0 26 -7 38 -16z m-2004
-96 c-4 -7 -13 -2 -25 13 -23 29 -25 51 -3 23 13 -16 15 -16 10 -1 -16 47 -16
49 4 14 11 -21 18 -43 14 -49z m241 71 c16 -7 14 -8 -9 -4 -19 4 -32 1 -37 -7
-7 -10 -9 -9 -9 5 0 19 23 21 55 6z m1605 -12 c0 -16 -6 -23 -20 -24 -18 -2
-19 0 -5 13 8 9 15 20 15 25 0 5 2 9 5 9 3 0 5 -10 5 -23z m138 1 c7 -7 8 -17
1 -30 -14 -26 -39 -23 -39 5 0 36 16 47 38 25z m92 -50 c-14 -24 -16 -35 -8
-45 8 -11 7 -12 -6 -7 -9 3 -16 9 -16 13 0 9 39 71 45 71 2 0 -4 -14 -15 -32z
m137 0 c4 -7 8 -20 9 -28 3 -48 5 -50 31 -50 28 0 73 -35 73 -56 0 -8 6 -11
14 -8 7 3 -6 -16 -30 -41 l-43 -46 -31 16 c-17 9 -38 31 -45 48 -12 29 -12 34
6 53 21 22 25 59 8 70 -8 4 -7 9 2 15 11 6 11 11 1 21 -9 9 -15 9 -24 0 -7 -7
-16 -12 -22 -12 -11 0 25 29 36 30 4 0 10 -6 15 -12z m-68 -11 c-2 -1 -15 -11
-29 -22 l-25 -20 19 23 c11 12 24 22 29 22 6 0 8 -1 6 -3z m-1628 -39 c7 -18
18 -38 25 -45 6 -6 9 -26 7 -45 -2 -18 -4 -40 -5 -49 -1 -9 -8 -15 -15 -12 -6
3 -9 11 -6 19 3 10 0 12 -10 8 -12 -4 -14 -1 -10 14 2 11 0 22 -5 26 -12 7
-46 -69 -38 -83 4 -6 3 -11 -3 -11 -15 0 -31 34 -31 65 0 26 59 145 71 145 4
0 13 -15 20 -32z m1665 -9 c4 -7 0 -9 -14 -5 -22 7 -37 -7 -27 -24 5 -8 11 -7
21 1 9 7 14 8 14 1 0 -13 -21 -21 -37 -14 -16 5 -17 24 -1 40 15 15 35 15 44
1z m-134 -19 c18 -11 29 -20 23 -20 -5 0 -23 9 -40 20 -39 26 -25 26 17 0z
m88 -52 c19 -10 28 -18 19 -18 -30 0 -69 40 -68 68 1 27 1 27 8 -3 4 -21 16
-35 41 -47z m-2494 -3 l-38 -34 29 -38 c34 -45 33 -70 -8 -109 l-29 -28 -43
42 c-23 23 -37 42 -30 42 6 0 25 -16 43 -36 l31 -36 25 23 c29 27 31 62 4 89
-27 27 -46 25 -89 -6 l-36 -26 33 31 c18 17 42 31 53 31 13 0 18 4 13 12 -4 7
8 25 32 45 51 43 60 42 10 -2z m1383 -1 c12 -15 21 -32 21 -38 0 -6 25 -33 55
-59 49 -43 55 -46 55 -26 0 23 35 69 53 69 5 0 -2 -9 -17 -21 -15 -12 -26 -30
-26 -44 0 -39 -14 -37 -64 10 -26 25 -51 45 -57 45 -5 0 -9 8 -9 18 0 10 -7
28 -16 40 -29 42 -104 18 -104 -34 0 -13 -8 -25 -17 -28 -10 -3 -37 -24 -61
-46 -23 -22 -50 -40 -60 -39 -12 0 -10 3 7 10 14 5 31 18 38 29 7 10 29 28 48
40 19 12 35 29 35 38 0 26 41 62 71 62 18 0 35 -9 48 -26z m-1347 -26 c-34
-22 -39 -16 -10 14 13 13 26 19 30 13 4 -5 -5 -17 -20 -27z m178 28 c0 -2 -12
-11 -27 -20 l-28 -17 24 20 c23 21 31 25 31 17z m1155 -26 c3 -9 3 -24 0 -32
-4 -11 2 -17 18 -21 13 -4 47 -29 76 -57 29 -28 57 -48 62 -45 5 4 12 24 15
46 4 23 14 44 25 49 42 23 126 3 164 -39 30 -34 5 -69 -65 -93 -60 -20 -86
-40 -75 -58 5 -8 11 -6 21 7 12 16 13 15 14 -14 0 -41 -13 -48 -49 -27 -29 17
-30 17 -66 -14 -51 -45 -98 -62 -171 -62 -86 0 -157 29 -256 103 -163 124
-184 138 -220 147 -20 6 -40 15 -44 21 -4 8 1 9 15 4 13 -4 28 -1 37 6 18 15
62 3 159 -42 92 -42 132 -38 182 22 13 15 39 34 58 40 28 11 32 16 24 31 -7
13 -5 22 10 37 23 23 57 18 66 -9z m-1259 -32 c7 -11 -52 -68 -71 -67 -9 0 4
12 50 45 15 11 16 17 7 26 -9 9 -16 7 -32 -7 -11 -10 -23 -16 -26 -12 -9 9 5
27 22 27 9 0 12 5 8 11 -5 8 -1 8 14 0 12 -6 24 -16 28 -23z m2619 22 c-3 -5
2 -10 13 -10 20 0 62 -35 62 -52 0 -6 -9 1 -21 16 -27 34 -55 33 -90 -5 -39
-41 -37 -28 3 22 29 36 47 52 33 29z m-1097 -17 c-10 -2 -26 -2 -35 0 -10 3
-2 5 17 5 19 0 27 -2 18 -5z m90 -29 c12 -8 27 -25 33 -37 9 -18 7 -18 -13 4
-12 15 -32 32 -43 38 -11 6 -15 11 -10 11 6 0 21 -7 33 -16z m-768 -4 c18 -12
2 -12 -25 0 -13 6 -15 9 -5 9 8 0 22 -4 30 -9z m1808 -21 c3 -12 2 -12 -6 0
-11 15 -32 7 -32 -13 0 -8 10 -12 26 -10 14 1 23 0 20 -4 -12 -12 -48 -9 -53
5 -6 16 16 45 30 40 6 -2 12 -10 15 -18z m-2798 -4 c7 -8 9 -22 6 -31 -6 -15
-9 -14 -31 6 -25 23 -25 40 -1 40 8 0 19 -7 26 -15z m1082 -15 c34 -16 56 -30
48 -30 -15 1 -131 59 -118 60 3 0 35 -13 70 -30z m-242 -5 c14 -19 14 -19 -2
-6 -10 7 -18 18 -18 24 0 6 1 8 3 6 1 -2 9 -13 17 -24z m2001 -11 c-17 -7 -36
-25 -43 -39 -6 -14 -14 -22 -17 -18 -3 5 -19 14 -35 21 -16 7 -26 15 -24 18 3
2 17 -2 32 -10 25 -13 29 -12 55 13 15 14 26 29 24 33 -2 3 6 4 18 1 19 -5 18
-7 -10 -19z m78 -30 c8 -19 8 -31 -1 -47 -12 -24 -38 -46 -53 -47 -5 0 1 7 13
16 40 28 47 53 23 85 -13 17 -16 26 -7 23 7 -3 18 -16 25 -30z m-1933 -34 c38
-27 96 -70 129 -96 33 -26 80 -56 106 -68 l45 -21 -33 -31 c-36 -34 -46 -27
-12 7 11 11 19 22 17 23 -2 1 -25 15 -53 31 -27 16 -88 59 -135 97 -47 38
-103 77 -125 88 -22 11 -33 20 -24 20 9 0 47 -22 85 -50z m-1065 11 c35 -36
36 -54 4 -86 -27 -28 -66 -32 -85 -10 -14 16 -30 20 -30 7 0 -5 11 -15 25 -22
14 -7 23 -15 21 -18 -3 -2 -18 4 -35 14 -24 14 -28 21 -19 32 9 10 8 16 -3 23
-11 7 -11 9 0 9 7 0 22 -11 33 -25 25 -32 58 -32 89 1 22 23 23 27 8 52 -8 15
-27 31 -43 37 -26 9 -31 6 -59 -25 -16 -19 -26 -28 -22 -20 16 31 49 60 68 60
10 0 32 -13 48 -29z m1870 1 c-6 -11 -18 -23 -28 -26 -14 -6 -13 -2 5 14 12
11 22 26 22 32 0 6 3 9 6 6 3 -4 1 -15 -5 -26z m1062 11 c-16 -6 -17 -33 -3
-33 6 0 15 10 20 23 9 22 9 22 9 1 1 -24 -27 -40 -42 -25 -12 12 -2 41 15 40
10 0 10 -2 1 -6z m-2973 -73 c14 0 13 27 -2 33 -10 4 -10 6 0 6 17 1 27 -28
15 -40 -15 -15 -43 1 -42 25 0 21 0 21 9 -1 5 -13 14 -23 20 -23z m2962 0 c6
0 8 -3 5 -6 -8 -8 -57 23 -57 36 0 6 9 1 20 -10 11 -11 25 -20 32 -20z m128 6
c0 -2 -18 -15 -40 -30 -22 -14 -40 -24 -40 -22 0 5 71 56 77 56 2 0 3 -2 3 -4z
m-3209 -35 c-12 -16 -21 -33 -21 -38 0 -4 18 -21 40 -36 46 -33 52 -64 18 -93
-23 -19 -23 -19 -5 2 29 34 21 59 -28 91 l-45 29 26 37 c13 20 27 37 30 37 3
0 -4 -13 -15 -29z m3252 -1 c10 -17 16 -34 13 -39 -4 -5 -2 -11 3 -13 5 -1
-12 -16 -37 -31 -47 -29 -43 -16 8 29 l25 22 -23 31 c-12 17 -19 31 -14 31 4
0 16 -14 25 -30z m-1326 -12 c-3 -7 -5 -2 -5 12 0 14 2 19 5 13 2 -7 2 -19 0
-25z m1293 -8 c0 -5 -4 -10 -10 -10 -5 0 -10 5 -10 10 0 6 5 10 10 10 6 0 10
-4 10 -10z m-3137 -60 c8 -10 4 -9 -13 3 -14 10 -33 20 -42 24 -10 3 -18 10
-18 15 0 11 57 -21 73 -42z m1777 24 c0 -2 -8 -1 -17 5 -14 6 -28 1 -60 -24
-41 -32 -42 -33 -23 -50 15 -14 18 -29 17 -81 -1 -35 3 -66 8 -68 6 -3 3 -5
-5 -5 -13 -1 -15 11 -13 69 2 70 2 71 -30 90 -19 12 -25 20 -16 20 9 0 36 15
60 34 33 27 47 32 61 25 10 -5 18 -12 18 -15z m60 22 c0 -9 -32 -36 -42 -36
-6 0 0 9 13 20 25 21 29 23 29 16z m1236 -10 c13 3 26 -2 35 -13 13 -16 12
-17 -3 -5 -9 8 -26 11 -36 8 -12 -4 -24 0 -33 11 -12 16 -12 17 2 6 8 -7 24
-10 35 -7z m185 -42 c8 -10 3 -10 -20 2 -17 9 -31 17 -31 19 0 8 40 -9 51 -21z
m-3321 -44 c0 -19 -17 -17 -55 7 -25 15 -31 22 -16 18 17 -5 21 -4 16 5 -4 7
5 5 24 -4 17 -9 31 -21 31 -26z m3300 20 c26 -26 18 -42 -36 -68 l-45 -22 -30
29 c-16 16 -29 35 -29 43 0 7 9 -2 20 -19 23 -38 37 -40 90 -13 27 14 38 25
34 35 -8 19 -13 19 -49 -5 -36 -24 -45 -25 -45 -5 0 13 43 44 63 45 4 0 16 -9
27 -20z m-1704 -20 c20 0 44 5 55 10 15 9 26 6 50 -11 62 -44 10 -83 -111 -83
-79 1 -140 22 -140 48 0 23 61 54 88 44 13 -4 39 -8 58 -8z m-1645 -35 c48
-27 46 -35 -1 -10 -19 10 -31 11 -35 5 -4 -6 9 -17 27 -25 18 -8 28 -14 21
-15 -7 0 -24 5 -38 12 -18 8 -24 17 -19 30 7 24 -21 24 -35 1 -6 -10 -11 -13
-11 -7 0 14 21 34 36 34 7 0 32 -11 55 -25z m3400 -77 c-9 -14 -8 -18 1 -19
20 -1 -54 -27 -80 -28 -15 -1 -29 10 -42 32 -11 17 -20 37 -20 42 1 6 10 -7
21 -27 14 -28 26 -38 44 -38 14 0 25 3 25 8 0 4 10 12 23 17 22 10 26 31 13
70 -4 11 0 7 10 -9 13 -23 14 -34 5 -48z m-3500 21 c-5 -13 -10 -19 -10 -12
-1 15 10 45 15 40 3 -2 0 -15 -5 -28z m1644 6 c50 -18 148 -18 197 -1 31 11
38 11 42 0 3 -8 3 -21 0 -29 -5 -13 -28 -15 -143 -13 l-136 3 -3 28 c-2 15 -2
27 0 27 2 0 21 -7 43 -15z m1820 5 c3 -5 1 -10 -4 -10 -6 0 -11 5 -11 10 0 6
2 10 4 10 3 0 8 -4 11 -10z m-1888 -32 c-3 -7 -5 -2 -5 12 0 14 2 19 5 13 2
-7 2 -19 0 -25z m1853 -2 c0 -5 -7 -3 -15 4 -8 7 -12 17 -9 22 7 10 24 -9 24
-26z m-3340 4 c46 -25 34 -25 -21 0 -24 11 -37 19 -29 19 8 0 31 -8 50 -19z
m1328 -24 c16 -19 38 -36 48 -39 17 -4 16 -5 -2 -6 -14 -1 -31 12 -48 34 -15
19 -31 35 -36 35 -5 0 -48 -23 -94 -50 -47 -28 -93 -53 -103 -56 -10 -4 27 21
82 54 55 33 105 61 111 61 7 1 25 -14 42 -33z m775 -15 c42 -25 75 -46 73 -48
-2 -2 -39 17 -82 43 l-78 46 -36 -40 c-29 -33 -38 -39 -55 -31 -19 9 -19 9 2
5 16 -3 30 7 53 36 18 21 35 38 39 36 4 -2 42 -23 84 -47z m-2133 24 c19 -7
28 -14 20 -14 -8 0 -28 6 -45 14 -39 17 -21 18 25 0z m-43 -32 c15 -7 20 -11
11 -9 -10 3 -20 1 -23 -5 -4 -5 8 -12 25 -15 17 -4 29 -9 26 -11 -2 -3 -19 -2
-36 2 -22 5 -30 11 -26 21 3 8 -1 17 -9 20 -8 4 -15 14 -15 23 0 13 2 14 9 2
5 -8 22 -20 38 -28z m1396 -13 l27 -39 53 15 c28 8 64 19 79 24 19 6 30 5 38
-5 9 -11 3 -16 -32 -25 -24 -6 -67 -18 -95 -26 l-53 -15 -28 32 -28 31 -64
-38 c-36 -20 -67 -38 -68 -40 -2 -1 1 -19 8 -39 l12 -37 -82 -83 -83 -83 -35
15 c-40 17 -39 17 -86 -62 l-35 -60 30 -25 c30 -25 30 -27 20 -68 -8 -26 -18
-42 -27 -42 -12 0 -14 7 -9 31 6 26 2 34 -31 63 l-37 32 56 97 57 96 42 -19
42 -19 45 39 c26 21 56 49 69 62 22 24 22 25 5 73 -11 30 -14 49 -8 52 6 2 49
25 95 53 47 27 87 50 90 50 3 0 17 -18 33 -40z m182 30 c3 -6 -4 -10 -17 -10
-18 0 -20 2 -8 10 19 12 18 12 25 0z m616 -51 c49 -28 89 -55 89 -59 0 -4 -7
-24 -16 -45 l-15 -37 53 -58 c29 -32 60 -61 69 -64 9 -3 34 0 56 8 l41 14 56
-96 c46 -78 54 -98 43 -107 -65 -49 -67 -52 -57 -79 8 -22 7 -26 -10 -26 -14
0 -21 10 -26 37 -6 33 -4 39 24 61 l30 23 -41 70 c-31 50 -46 67 -57 63 -51
-22 -63 -17 -143 64 -73 74 -77 80 -67 106 17 46 12 54 -56 92 l-65 36 -29
-27 -29 -28 -58 16 c-32 9 -77 21 -101 27 -34 9 -41 14 -33 24 9 11 26 9 94
-10 l82 -25 28 36 c16 19 34 35 39 35 6 0 50 -23 99 -51z m-2111 21 c-12 -23
-19 -24 -40 -9 -12 8 -11 9 6 4 14 -4 24 0 28 10 3 8 8 15 11 15 3 0 1 -9 -5
-20z m1435 10 c-11 -5 -27 -9 -35 -9 -9 0 -8 4 5 9 11 5 27 9 35 9 9 0 8 -4
-5 -9z m440 0 c13 -5 14 -9 5 -9 -8 0 -24 4 -35 9 -13 5 -14 9 -5 9 8 0 24 -4
35 -9z m-2018 -22 c-3 -8 -6 -5 -6 6 -1 11 2 17 5 13 3 -3 4 -12 1 -19z m3562
9 c-15 -13 -69 -34 -69 -27 0 5 12 13 28 18 28 11 49 15 41 9z m-1669 -22 c0
-8 -3 -15 -7 -15 -5 0 -42 -3 -83 -6 -86 -5 -130 2 -130 22 0 11 22 14 110 14
91 0 110 -3 110 -15z m-450 -35 l25 -30 92 25 c77 21 96 23 113 13 11 -7 20
-21 20 -30 0 -15 -9 -18 -44 -18 -47 0 -171 -34 -181 -50 -4 -6 1 -13 9 -16
20 -8 21 -24 1 -24 -32 0 -13 -19 36 -35 38 -13 67 -15 115 -10 63 6 64 6 64
-17 0 -21 -9 -27 -69 -46 -85 -28 -171 -83 -235 -151 l-48 -53 -145 -29 c-80
-17 -147 -28 -149 -26 -2 2 1 19 8 37 10 31 9 35 -19 60 l-30 27 32 54 c18 30
38 53 46 52 8 -1 25 -5 39 -8 21 -5 38 7 114 84 89 89 89 90 76 121 -7 17 -11
32 -9 34 9 8 104 66 109 66 3 0 16 -13 30 -30z m920 4 c0 -2 -9 0 -20 6 -11 6
-20 13 -20 16 0 2 9 0 20 -6 11 -6 20 -13 20 -16z m-348 -11 l100 -27 20 27
c11 15 24 27 30 27 5 0 34 -14 63 -32 l53 -31 -15 -35 -15 -35 91 -90 90 -91
36 11 35 11 33 -56 33 -57 -29 -24 c-24 -21 -28 -29 -22 -58 7 -40 11 -40
-125 -8 -58 14 -116 25 -130 25 -17 0 -45 21 -92 69 -69 69 -143 116 -233 145
-39 12 -50 21 -52 38 -16 183 -16 189 3 203 24 18 9 19 126 -12z m-1972 13 c0
-2 -7 -7 -16 -10 -8 -3 -12 -2 -9 4 6 10 25 14 25 6z m3505 -12 c-27 -7 -55
-21 -62 -30 -7 -10 -13 -13 -13 -7 0 6 -3 20 -6 30 -5 15 -4 16 6 3 10 -13 12
-13 21 0 7 9 29 16 57 16 l47 2 -50 -14z m-1685 -50 l0 -55 -30 21 c-23 17
-30 29 -30 56 0 31 2 34 30 34 30 0 30 0 30 -56z m-1860 38 c0 -4 -10 -13 -22
-21 -23 -14 -23 -14 -4 8 20 22 26 25 26 13z m43 -12 c-12 -5 -27 -19 -33 -30
-6 -12 -14 -19 -18 -16 -9 9 39 56 57 55 11 0 8 -3 -6 -9z m1177 -25 c0 -5 -5
-3 -10 5 -5 8 -10 20 -10 25 0 6 5 3 10 -5 5 -8 10 -19 10 -25z m1141 8 c-12
-20 -14 -14 -5 12 4 9 9 14 11 11 3 -2 0 -13 -6 -23z m-2273 -8 c-3 -3 -9 2
-12 12 -6 14 -5 15 5 6 7 -7 10 -15 7 -18z m3541 -51 c-1 -17 -2 -17 -6 1 -13
55 -69 72 -109 34 l-23 -21 6 20 c4 15 17 24 47 29 37 8 43 6 63 -18 13 -15
22 -35 22 -45z m-3656 -4 c-6 -7 -23 23 -23 40 0 8 6 4 13 -10 8 -14 12 -27
10 -30z m82 29 c-10 -15 -25 -10 -19 6 4 8 10 12 15 9 5 -3 7 -10 4 -15z
m1733 0 c50 -24 82 -69 82 -114 0 -53 -14 -60 -43 -22 -42 56 -84 70 -186 63
-90 -7 -163 4 -127 19 17 8 17 9 -5 26 l-23 17 49 15 c77 24 199 22 253 -4z
m-1705 -21 c-12 -21 -28 -34 -44 -35 l-24 -2 26 10 c14 5 31 21 37 34 7 14 14
25 18 25 3 0 -3 -15 -13 -32z m1150 18 c3 -7 -19 -37 -51 -69 -45 -44 -60 -54
-72 -46 -13 9 -13 10 0 6 20 -6 120 91 113 109 -3 8 -3 14 0 14 3 0 7 -6 10
-14z m1114 0 c-6 -16 76 -110 103 -119 13 -5 13 -6 0 -6 -25 -1 -122 102 -114
122 3 9 8 17 11 17 3 0 3 -7 0 -14z m1238 -6 c4 -6 2 -16 -4 -23 -6 -8 -6 -18
-1 -27 7 -12 11 -12 27 1 16 12 17 12 6 -1 -10 -13 -8 -18 6 -27 10 -6 21 -21
24 -32 3 -12 1 -19 -4 -15 -5 3 -9 12 -9 19 0 35 -69 46 -100 15 -11 -11 -20
-16 -20 -11 0 6 5 13 11 16 6 5 4 12 -8 22 -16 13 -16 13 7 2 18 -9 25 -9 28
0 2 6 9 8 15 4 6 -4 8 0 4 10 -3 9 -2 19 4 23 6 4 6 11 -2 20 -7 9 -8 14 -1
14 6 0 14 -5 17 -10z m-38 -15 c0 -8 -4 -15 -9 -15 -4 0 -8 7 -8 15 0 8 4 15
8 15 5 0 9 -7 9 -15z m-3527 -10 c-7 -8 -27 -15 -44 -14 -31 1 -31 1 9 14 22
8 42 14 44 14 2 1 -2 -6 -9 -14z m3478 -10 c-3 -3 -9 2 -12 12 -6 14 -5 15 5
6 7 -7 10 -15 7 -18z m-3435 -50 c-10 -13 -27 -25 -37 -25 -14 0 -11 6 15 24
43 31 43 31 22 1z m-86 -1 c-16 -9 -31 -13 -35 -10 -3 3 0 6 7 6 7 0 9 5 6 10
-4 6 6 10 22 10 l28 -1 -28 -15z m1093 1 c14 -8 21 -14 15 -14 -5 0 -21 6 -35
14 -14 8 -20 14 -15 14 6 0 21 -6 35 -14z m1536 -106 c35 -57 64 -108 64 -114
0 -9 -43 59 -93 147 -15 26 -35 54 -44 64 -12 11 -13 16 -4 13 8 -3 42 -52 77
-110z m-1637 5 c-29 -49 -58 -96 -66 -104 -8 -8 14 33 48 92 35 59 64 106 66
104 2 -2 -20 -43 -48 -92z m1531 86 c-8 -5 -19 -10 -25 -10 -5 0 -3 5 5 10 8
5 20 10 25 10 6 0 3 -5 -5 -10z m1064 -25 c-7 -17 21 -21 31 -5 3 6 1 10 -6
10 -7 0 -10 3 -6 6 10 11 26 -6 20 -21 -8 -24 -53 -19 -53 5 0 11 4 20 10 20
5 0 7 -7 4 -15z m-1730 -33 c20 -29 26 -50 26 -90 0 -29 -2 -52 -5 -52 -3 0
-17 7 -30 16 -23 15 -25 23 -25 90 0 41 2 74 4 74 2 0 15 -17 30 -38z m-1806
11 c-15 -2 -42 -2 -60 0 -18 2 -6 4 27 4 33 0 48 -2 33 -4z m3593 -26 l-24
-22 19 27 c10 14 21 24 23 22 3 -3 -6 -15 -18 -27z m-86 3 c16 -17 16 -20 3
-15 -9 4 -19 13 -22 21 -7 19 -2 18 19 -6z m-3507 -27 c-15 -2 -42 -2 -60 0
-18 2 -6 4 27 4 33 0 48 -2 33 -4z m3559 1 c-3 -3 -12 -4 -19 -1 -8 3 -5 6 6
6 11 1 17 -2 13 -5z m-1731 -140 c3 -12 4 -31 2 -43 -3 -20 -4 -20 -45 7 -23
15 -57 36 -75 47 -29 18 -33 26 -36 68 l-3 47 75 -53 c42 -28 78 -62 82 -73z
m-880 -25 c13 -22 -3 -14 -36 19 l-35 34 32 -21 c18 -12 35 -27 39 -32z m1655
15 c-32 -27 -41 -58 -18 -67 9 -4 9 -6 -1 -6 -7 -1 -17 9 -21 22 -8 18 -4 27
22 49 18 15 36 28 40 28 5 0 -5 -12 -22 -26z m-968 -23 l29 -6 4 -182 4 -183
-39 0 c-26 0 -43 -6 -52 -19 -13 -17 -23 -18 -124 -11 -69 4 -91 8 -60 10 45
2 47 3 20 10 -37 9 -247 12 -269 4 -14 -5 -16 -39 -16 -269 0 -145 3 -266 8
-268 4 -3 125 -7 269 -9 l263 -3 0 -42 0 -41 50 -4 c49 -3 50 -2 50 25 0 31 0
30 34 17 22 -8 26 -16 28 -52 1 -41 1 -41 5 -8 3 19 8 39 12 43 12 12 194 -23
207 -39 13 -16 35 -18 50 -5 14 13 184 23 184 11 0 -5 7 -10 15 -10 8 0 15 3
15 8 0 4 10 12 23 17 l22 10 8 364 c5 209 5 367 0 372 -12 12 -265 29 -278 19
-6 -5 -53 -16 -105 -25 -52 -8 -107 -18 -122 -21 -25 -5 -28 -3 -28 23 0 24 6
31 34 41 19 7 66 41 105 76 63 57 77 65 128 73 l58 8 -52 18 c-73 24 -94 22
-149 -17 -27 -19 -65 -44 -86 -55 l-36 -20 -4 50 c-6 93 5 99 192 99 107 0
169 -9 390 -55 153 -33 295 -37 354 -12 22 10 40 16 41 15 3 -3 47 -835 62
-1140 l6 -136 -44 -13 c-41 -13 -114 -73 -135 -111 -8 -15 -18 -14 -122 7
-136 28 -334 55 -408 55 -30 0 -54 2 -54 5 0 2 11 24 25 49 14 25 25 47 25 50
0 10 -148 7 -154 -3 -3 -5 1 -14 9 -21 8 -7 12 -16 9 -21 -4 -7 -198 -107
-266 -137 -5 -2 -8 3 -8 12 0 9 5 16 10 16 6 0 10 4 10 9 0 4 -11 6 -25 3 -24
-4 -25 -2 -25 47 0 39 -4 51 -15 51 -11 0 -15 11 -15 36 0 36 1 36 31 30 17
-3 40 -6 50 -6 14 0 19 -7 19 -29 0 -16 -6 -32 -12 -34 -8 -3 -6 -6 5 -6 13
-1 17 7 17 33 l0 33 88 -4 c79 -5 90 -3 115 17 15 12 27 26 27 30 0 13 -92
161 -97 157 -2 -2 8 -24 22 -48 45 -79 51 -76 -179 -84 -113 -4 -308 -4 -435
0 -201 7 -229 9 -223 23 3 10 -3 7 -16 -6 -27 -27 -27 -33 1 -60 63 -59 195
-72 341 -33 49 13 110 21 158 21 l78 0 0 -40 c0 -29 4 -40 15 -40 11 0 15 -12
15 -44 0 -25 5 -48 10 -51 6 -3 10 -15 10 -27 0 -15 -4 -18 -17 -12 -69 30
-192 65 -268 75 -132 17 -335 -1 -564 -52 -52 -11 -55 -10 -72 12 l-19 24 0
-26 c0 -17 -7 -28 -18 -31 -22 -6 -69 53 -122 156 -38 74 -39 78 -34 153 6 98
42 791 51 976 5 121 8 137 22 132 9 -4 43 -13 75 -22 72 -18 159 -9 406 42
140 28 185 34 295 33 72 0 143 -3 158 -7z m-912 -27 c21 -9 24 -13 9 -8 -14 3
-35 7 -47 8 -11 0 -19 4 -16 9 6 10 17 9 54 -9z m1092 -12 c11 -10 17 -30 17
-59 0 -42 -1 -44 -27 -41 -27 3 -28 6 -31 66 -3 67 -1 69 41 34z m1031 6 c8
-12 12 -26 9 -32 -4 -6 -10 0 -13 14 -6 26 -24 30 -65 16 -13 -5 -11 -2 5 8
34 21 46 20 64 -6z m-1904 -3 c0 -8 -7 -15 -15 -15 -13 0 -14 3 -3 15 16 18
18 18 18 0z m-764 -76 c19 -39 34 -73 32 -75 -2 -2 -21 30 -41 71 -20 41 -35
75 -32 75 3 0 21 -32 41 -71z m187 -2 c-38 -40 -83 -97 -101 -127 -17 -30 -32
-51 -32 -46 0 22 79 134 133 187 34 32 63 59 65 59 3 0 -27 -33 -65 -73z m430
66 c-7 -2 -19 -2 -25 0 -7 3 -2 5 12 5 14 0 19 -2 13 -5z m1287 -2 l25 -8 -30
-7 c-16 -4 -63 -36 -104 -71 -114 -99 -183 -116 -266 -65 -33 20 -35 25 -35
77 l0 55 41 -36 c22 -20 51 -41 65 -47 36 -13 94 4 148 45 82 63 105 72 156
57z m653 2 c-7 -2 -19 -2 -25 0 -7 3 -2 5 12 5 14 0 19 -2 13 -5z m-2316 -79
c-19 -38 -40 -84 -47 -102 -7 -18 -14 -31 -17 -29 -2 2 6 26 17 53 30 70 73
154 77 150 2 -2 -11 -34 -30 -72z m205 47 c-3 -21 -8 -28 -19 -24 -8 3 -11 9
-6 12 5 3 12 14 16 24 10 26 14 20 9 -12z m246 22 c-10 -2 -26 -2 -35 0 -10 3
-2 5 17 5 19 0 27 -2 18 -5z m1800 0 c-10 -2 -26 -2 -35 0 -10 3 -2 5 17 5 19
0 27 -2 18 -5z m220 -18 c-3 -3 -9 2 -12 12 -6 14 -5 15 5 6 7 -7 10 -15 7
-18z m-2771 -52 c-2 -16 -4 -5 -4 22 0 28 2 40 4 28 2 -13 2 -35 0 -50z m546
40 c3 -5 -3 -163 -14 -353 -10 -190 -23 -434 -29 -543 -8 -153 -14 -203 -26
-223 -9 -13 -18 -23 -19 -22 -1 2 9 176 21 388 12 212 25 455 29 540 3 85 8
170 11 188 5 30 17 41 27 25z m2207 -57 c0 -36 13 -302 29 -593 34 -599 37
-673 35 -673 -1 0 -9 -3 -18 -6 -13 -5 -15 3 -14 48 0 29 -7 181 -16 338 -31
518 -53 935 -49 943 2 4 11 7 19 7 11 0 14 -15 14 -64z m476 48 c18 -15 18
-15 -3 -5 -28 14 -29 14 -47 -5 -20 -19 -20 -29 0 -48 22 -23 10 -103 -13 -85
-9 8 -17 9 -21 3 -4 -5 -23 8 -42 31 l-34 40 32 -29 c18 -16 41 -30 52 -31 28
-2 37 37 16 67 -20 29 -20 34 4 58 24 24 30 25 56 4z m-436 2 c0 -2 -7 -7 -16
-10 -8 -3 -12 -2 -9 4 6 10 25 14 25 6z m-2315 -507 c-39 -705 -39 -697 -51
-674 -9 15 -7 96 6 315 10 162 23 399 29 525 14 273 19 321 32 308 7 -7 1
-170 -16 -474z m2315 416 c0 -36 5 -143 10 -238 6 -94 19 -325 30 -512 11
-187 23 -388 26 -448 6 -91 4 -107 -8 -102 -12 5 -17 55 -27 258 -7 139 -23
440 -36 671 -14 230 -22 423 -19 427 15 24 24 2 24 -56z m34 50 c3 -8 1 -15
-4 -15 -6 0 -10 7 -10 15 0 8 2 15 4 15 2 0 6 -7 10 -15z m407 -40 c-11 -22
-20 -37 -21 -33 0 13 35 89 38 80 1 -4 -7 -26 -17 -47z m191 38 c24 -21 23
-45 -2 -68 -18 -16 -23 -17 -46 -4 -22 12 -30 11 -55 -3 -40 -23 -37 -13 3 12
30 18 33 18 51 3 23 -22 52 -6 52 27 0 36 -29 48 -57 25 l-23 -20 19 23 c23
26 33 27 58 5z m-3168 -7 c-3 -8 -13 -17 -22 -21 -13 -5 -13 -2 3 15 21 24 26
25 19 6z m2807 -3 c13 -15 12 -15 -8 -2 -20 12 -26 12 -45 0 -21 -13 -22 -13
-9 2 7 10 21 17 31 17 10 0 24 -7 31 -17z m-3112 -112 l50 -73 4 83 3 84 2
-104 2 -105 -35 58 c-19 32 -51 81 -72 109 -20 29 -29 45 -20 37 8 -8 38 -48
66 -89z m471 78 c0 -11 -4 -18 -10 -14 -5 3 -7 12 -3 20 7 21 13 19 13 -6z
m-551 -29 c0 -10 -3 -8 -9 5 -12 27 -12 43 0 25 5 -8 9 -22 9 -30z m586 -52
c-3 -51 -14 -253 -25 -448 -26 -459 -30 -515 -42 -475 -4 17 -6 66 -3 110 3
44 14 238 25 430 24 421 29 475 41 475 7 0 8 -35 4 -92z m2385 -163 c6 -115
17 -315 25 -443 7 -128 11 -241 8 -252 -9 -34 -19 -13 -21 42 -3 56 -38 701
-46 825 -4 73 3 103 15 61 4 -13 12 -117 19 -233z m35 245 c-3 -5 -12 -10 -18
-10 -7 0 -6 4 3 10 19 12 23 12 15 0z m130 -20 l20 -25 -22 19 c-13 11 -23 24
-23 29 0 6 1 8 3 6 1 -2 11 -15 22 -29z m281 -1 c-14 -17 -26 -40 -26 -51 0
-12 -3 -19 -6 -15 -10 10 4 51 26 75 31 33 36 27 6 -9z m-3176 -43 c0 -26 -6
-18 -14 19 -5 22 -4 26 4 15 5 -8 10 -24 10 -34z m247 -48 c-2 -18 -4 -4 -4
32 0 36 2 50 4 33 2 -18 2 -48 0 -65z m2550 25 c-2 -16 -4 -5 -4 22 0 28 2 40
4 28 2 -13 2 -35 0 -50z m180 45 c28 -26 30 -48 4 -41 -13 3 -21 -2 -26 -16
-6 -21 -7 -21 -41 9 -19 16 -42 30 -52 31 -11 0 -13 2 -4 6 7 3 30 -6 52 -21
31 -20 39 -22 44 -11 3 8 13 15 22 15 16 0 15 2 -1 20 -10 12 -25 18 -32 15
-8 -2 -11 0 -8 5 9 15 16 13 42 -12z m-2675 -78 c-4 -145 -41 -773 -46 -777
-2 -2 -8 29 -15 69 -16 108 26 800 49 796 12 -3 15 -19 12 -88z m2468 53 c0
-21 11 -207 25 -413 23 -346 23 -375 8 -392 -9 -10 -18 -17 -19 -15 -2 2 -12
165 -23 362 -11 198 -23 386 -26 418 -6 61 -2 77 21 77 10 0 14 -12 14 -37z
m335 18 c3 -5 1 -12 -5 -16 -5 -3 -10 1 -10 9 0 18 6 21 15 7z m155 -44 c0
-12 0 -11 -24 28 l-17 30 20 -24 c12 -13 21 -28 21 -34z m-1660 9 c0 -16 -7
-26 -22 -30 -36 -9 -38 -8 -38 24 0 27 3 30 30 30 25 0 30 -4 30 -24z m1610
21 c0 -2 -10 -12 -22 -23 l-23 -19 19 23 c18 21 26 27 26 19z m-1200 -23 c0
-12 -52 -84 -70 -97 -11 -7 -17 -17 -13 -20 3 -4 -8 -7 -25 -7 l-32 0 0 63 c0
35 2 66 4 68 6 5 136 -1 136 -7z m827 -6 c-3 -8 -6 -5 -6 6 -1 11 2 17 5 13 3
-3 4 -12 1 -19z m-3048 -38 c0 -9 -4 -8 -9 5 -5 11 -9 27 -9 35 0 9 4 8 9 -5
5 -11 9 -27 9 -35z m3324 35 c-3 -9 -8 -14 -10 -11 -3 3 -2 9 2 15 9 16 15 13
8 -4z m115 -10 c-3 -3 -9 2 -12 12 -6 14 -5 15 5 6 7 -7 10 -15 7 -18z m-3119
-34 c-7 -23 -14 -39 -16 -37 -3 2 1 23 8 45 7 23 14 39 16 37 3 -2 -1 -23 -8
-45z m-284 29 c3 -5 1 -10 -4 -10 -6 0 -11 5 -11 10 0 6 2 10 4 10 3 0 8 -4
11 -10z m3256 -7 c13 -16 12 -17 -3 -4 -17 13 -22 21 -14 21 2 0 10 -8 17 -17z
m-218 -141 c14 -20 44 -56 67 -80 22 -24 50 -63 61 -87 12 -25 30 -47 40 -50
19 -6 19 -7 -2 -36 -17 -24 -24 -27 -35 -18 -8 6 -23 9 -34 6 -11 -3 -23 -1
-26 5 -3 5 -20 18 -38 29 -17 10 -26 19 -20 19 6 0 24 -10 40 -22 15 -13 38
-21 50 -20 12 2 25 -2 29 -8 5 -8 12 -5 21 9 13 18 12 22 -11 45 -14 14 -25
32 -25 40 0 9 -28 46 -62 83 -72 80 -98 132 -96 193 1 44 1 44 8 -13 5 -35 17
-71 33 -95z m82 108 c10 -11 16 -20 13 -20 -3 0 -13 9 -23 20 -10 11 -16 20
-13 20 3 0 13 -9 23 -20z m332 -37 c-3 -10 -5 -2 -5 17 0 19 2 27 5 18 2 -10
2 -26 0 -35z m-3458 -58 c-1 -18 -27 59 -28 80 0 11 7 0 15 -25 7 -25 13 -49
13 -55z m2988 3 c-2 -18 -4 -4 -4 32 0 36 2 50 4 33 2 -18 2 -48 0 -65z
m-2567 12 c0 -38 -4 -59 -11 -57 -16 3 -46 -40 -74 -108 -13 -33 -25 -53 -25
-45 0 23 47 119 75 152 18 22 25 41 25 74 0 24 2 44 5 44 3 0 5 -27 5 -60z
m2767 38 c-3 -8 -6 -5 -6 6 -1 11 2 17 5 13 3 -3 4 -12 1 -19z m-2920 -20 c-3
-8 -6 -5 -6 6 -1 11 2 17 5 13 3 -3 4 -12 1 -19z m1636 -68 c-2 -41 -7 -138
-11 -215 l-9 -140 1 210 1 210 -67 -3 c-46 -3 -68 0 -68 8 0 7 25 10 78 8 l77
-3 -2 -75z m1324 23 c-3 -10 -5 -2 -5 17 0 19 2 27 5 18 2 -10 2 -26 0 -35z
m210 6 c-8 -19 -33 -55 -56 -81 -23 -25 -48 -61 -56 -80 -8 -18 -14 -27 -15
-20 0 21 19 53 67 108 24 28 48 66 54 83 6 18 13 30 16 28 2 -3 -2 -20 -10
-38z m-250 -1 c-3 -7 -5 -2 -5 12 0 14 2 19 5 13 2 -7 2 -19 0 -25z m-2933
-27 c-4 -23 -9 -40 -11 -37 -3 3 -2 23 2 46 4 23 9 39 11 37 3 -2 2 -23 -2
-46z m2885 19 c11 -24 11 -24 -3 -6 -9 11 -16 24 -16 30 0 12 5 7 19 -24z
m-2794 -16 c-27 -13 -64 -39 -82 -56 -18 -18 -33 -28 -33 -22 0 20 125 103
155 103 6 0 -12 -11 -40 -25z m-327 -39 c0 -16 -2 -15 -8 5 -11 34 -11 60 0
35 5 -11 8 -29 8 -40z m112 34 c0 -6 -4 -7 -10 -4 -5 3 -10 11 -10 16 0 6 5 7
10 4 6 -3 10 -11 10 -16z m2988 -11 c3 1 7 -5 8 -14 2 -12 -6 -8 -27 12 -33
32 -40 47 -8 18 12 -10 24 -18 27 -16z m272 18 c0 -2 -6 -9 -14 -15 -11 -9
-16 -9 -22 0 -4 7 -3 9 4 5 6 -3 13 -2 17 4 6 10 15 14 15 6z m-211 -50 c1 -6
-5 -1 -13 9 -8 11 -12 24 -8 29 5 9 20 -17 21 -38z m131 26 c0 -5 -7 -17 -15
-28 -14 -18 -14 -17 -4 9 12 27 19 34 19 19z m-2970 -12 c0 -5 -5 -10 -11 -10
-5 0 -7 5 -4 10 3 6 8 10 11 10 2 0 4 -4 4 -10z m2657 -82 c-2 -18 -4 -4 -4
32 0 36 2 50 4 33 2 -18 2 -48 0 -65z m-2687 69 c0 -2 -17 -19 -37 -38 l-38
-34 34 38 c33 34 41 42 41 34z m3040 0 c0 -2 -10 -12 -22 -23 l-23 -19 19 23
c18 21 26 27 26 19z m-2943 -99 c-2 -18 -4 -4 -4 32 0 36 2 50 4 33 2 -18 2
-48 0 -65z m1582 -20 c-1 -62 -4 -104 -6 -93 -3 11 -12 28 -21 37 -19 23 -18
75 2 97 9 10 16 30 16 44 0 15 2 27 5 27 3 0 4 -51 4 -112z m-1962 80 c-3 -8
-6 -5 -6 6 -1 11 2 17 5 13 3 -3 4 -12 1 -19z m10 -50 c-3 -7 -5 -2 -5 12 0
14 2 19 5 13 2 -7 2 -19 0 -25z m3464 22 c10 -6 19 -16 19 -23 0 -8 -3 -9 -8
-1 -4 6 -16 16 -27 22 -25 14 -11 16 16 2z m-51 -15 c-7 -8 -21 -15 -31 -15
-21 0 -89 -56 -89 -74 0 -6 -12 -17 -27 -23 -22 -11 -28 -10 -39 5 -17 21 -17
32 -2 32 6 0 19 6 28 13 9 6 6 2 -7 -10 -13 -13 -19 -25 -13 -28 18 -11 45 4
64 36 10 16 34 37 54 46 21 8 44 19 52 24 22 12 24 11 10 -6z m-3265 -15 c3
-5 1 -10 -4 -10 -6 0 -11 5 -11 10 0 6 2 10 4 10 3 0 8 -4 11 -10z m-231 -25
c11 -8 16 -15 10 -15 -5 0 -18 7 -28 15 -11 8 -16 15 -10 15 5 0 18 -7 28 -15z
m93 -22 c-3 -10 -5 -4 -5 12 0 17 2 24 5 18 2 -7 2 -21 0 -30z m3187 8 c-2 -3
-12 3 -22 13 -16 17 -16 18 5 5 12 -7 20 -15 17 -18z m41 9 c-3 -5 -12 -10
-18 -10 -7 0 -6 4 3 10 19 12 23 12 15 0z m179 -5 c7 -19 30 -19 50 1 9 8 16
11 16 4 0 -6 -11 -15 -24 -21 -20 -10 -29 -8 -52 10 -17 14 -21 21 -11 21 8 0
17 -7 21 -15z m-3449 -140 c30 -60 56 -121 59 -135 l6 -25 -12 25 c-6 14 -28
62 -49 107 -20 45 -52 103 -70 130 -25 37 -27 43 -10 28 13 -11 47 -69 76
-130z m3389 130 c-17 -13 -17 -14 -2 -15 17 0 48 -36 48 -55 -1 -5 -8 2 -16
18 -18 33 -30 34 -62 5 l-23 -23 11 30 c11 30 35 55 54 55 5 0 1 -7 -10 -15z
m-3340 -38 c3 4 6 -3 6 -15 0 -18 -4 -17 -40 15 -49 44 -52 55 -6 20 18 -15
36 -23 40 -20z m253 11 c-3 -7 -5 -2 -5 12 0 14 2 19 5 13 2 -7 2 -19 0 -25z
m2719 -18 c8 19 11 24 8 10 -4 -14 -8 -75 -10 -137 -4 -98 -2 -112 11 -107 8
4 22 1 30 -6 23 -19 18 -2 -10 34 -14 18 -25 36 -25 40 0 16 102 -128 120
-168 10 -24 28 -51 40 -59 19 -13 21 -20 13 -44 l-10 -28 -7 31 c-4 17 -28 52
-56 79 -30 29 -50 58 -50 71 0 33 -27 51 -51 35 -20 -12 -20 -9 -20 56 0 37
-2 109 -3 158 -2 50 -1 70 1 45 l5 -45 14 35z m-2629 -102 c-2 -24 -4 -5 -4
42 0 47 2 66 4 43 2 -24 2 -62 0 -85z m1793 112 c0 -5 -4 -10 -10 -10 -5 0
-10 5 -10 10 0 6 5 10 10 10 6 0 10 -4 10 -10z m-2181 -34 c-3 -3 -11 5 -18
17 -13 21 -12 21 5 5 10 -10 16 -20 13 -22z m3553 17 c22 -20 23 -46 3 -63 -8
-7 -15 -18 -15 -25 0 -26 -60 -93 -111 -125 -67 -42 -106 -76 -130 -115 -11
-16 -19 -24 -19 -18 0 22 72 93 130 130 60 39 93 72 116 118 8 17 20 38 27 48
25 35 -25 73 -57 42 -9 -9 -16 -12 -16 -6 0 10 28 30 44 31 5 0 18 -7 28 -17z
m-3265 -45 c-2 -13 -4 -5 -4 17 -1 22 1 32 4 23 2 -10 2 -28 0 -40z m2804 25
c13 -16 12 -17 -3 -4 -17 13 -22 21 -14 21 2 0 10 -8 17 -17z m139 13 c0 -2
-8 -10 -17 -17 -16 -13 -17 -12 -4 4 13 16 21 21 21 13z m168 -17 c3 -12 2
-12 -7 1 -8 12 -14 11 -38 -10 l-28 -25 24 28 c26 29 42 31 49 6z m-241 -30
c2 -18 1 -20 -6 -9 -5 8 -8 17 -5 21 2 4 -1 10 -6 12 -6 3 -5 4 1 3 7 -1 14
-13 16 -27z m141 -4 c-3 -3 -9 2 -12 12 -6 14 -5 15 5 6 7 -7 10 -15 7 -18z
m151 -39 c1 -42 -5 -29 -12 24 -4 30 -3 38 3 25 5 -11 9 -33 9 -49z m44 -15
c-20 -35 -68 -79 -77 -70 -2 2 2 15 11 29 10 18 13 19 9 5 -4 -14 5 -9 29 17
35 38 43 62 25 73 -5 3 -10 11 -10 18 0 6 8 1 17 -13 16 -22 15 -25 -4 -59z
m-106 17 c-3 -7 -5 -2 -5 12 0 14 2 19 5 13 2 -7 2 -19 0 -25z m-3306 5 c13
-16 12 -17 -3 -4 -10 7 -18 15 -18 17 0 8 8 3 21 -13z m48 -17 c-3 -3 -11 5
-18 17 -13 21 -12 21 5 5 10 -10 16 -20 13 -22z m162 -7 l-21 -34 0 35 c0 26
3 31 10 20 8 -12 10 -12 16 3 3 10 8 16 11 14 2 -3 -5 -20 -16 -38z m46 4 c-3
-10 -5 -4 -5 12 0 17 2 24 5 18 2 -7 2 -21 0 -30z m2840 -15 c-3 -7 -5 -2 -5
12 0 14 2 19 5 13 2 -7 2 -19 0 -25z m-2850 -125 c-2 -21 -4 -4 -4 37 0 41 2
58 4 38 2 -21 2 -55 0 -75z m50 -5 c-2 -18 -4 -4 -4 32 0 36 2 50 4 33 2 -18
2 -48 0 -65z m2725 57 c2 3 5 -2 5 -10 0 -19 0 -19 -23 7 -12 14 -13 18 -3 10
9 -6 18 -10 21 -7z m189 -18 c-10 -9 -11 -8 -5 6 3 10 9 15 12 12 3 -3 0 -11
-7 -18z m-1844 -3 c-3 -3 -12 -4 -19 -1 -8 3 -5 6 6 6 11 1 17 -2 13 -5z m70
0 c-3 -3 -12 -4 -19 -1 -8 3 -5 6 6 6 11 1 17 -2 13 -5z m40 0 c-3 -3 -12 -4
-19 -1 -8 3 -5 6 6 6 11 1 17 -2 13 -5z m1696 -9 c-3 -9 -8 -14 -10 -11 -3 3
-2 9 2 15 9 16 15 13 8 -4z m107 12 c0 -2 -15 -16 -32 -33 l-33 -29 29 33 c28
30 36 37 36 29z m-229 -34 c13 -16 12 -17 -3 -4 -17 13 -22 21 -14 21 2 0 10
-8 17 -17z m-3052 -33 c0 -10 -3 -8 -9 5 -12 27 -12 43 0 25 5 -8 9 -22 9 -30z
m35 -107 c6 -18 4 -21 -14 -16 -15 4 -18 8 -9 13 9 6 9 15 0 40 -6 18 -11 38
-10 44 0 10 17 -30 33 -81z m242 -23 c3 -29 3 -31 -6 -13 -5 13 -12 46 -14 75
-5 52 -5 52 5 13 6 -22 12 -56 15 -75z m2749 50 c46 -47 47 -48 25 -60 -18 -9
-25 -9 -40 5 -10 9 -23 14 -28 11 -10 -6 -52 65 -52 88 0 26 48 4 95 -44z
m-2738 3 c-3 -10 -5 -4 -5 12 0 17 2 24 5 18 2 -7 2 -21 0 -30z m2837 -12 c-2
-3 -12 3 -22 13 -16 17 -16 18 5 5 12 -7 20 -15 17 -18z m192 8 c-15 -12 -35
-19 -48 -16 -21 4 -20 4 3 6 15 0 32 8 39 16 7 8 17 15 23 15 5 0 -2 -9 -17
-21z m-2999 -11 c-3 -8 -6 -5 -6 6 -1 11 2 17 5 13 3 -3 4 -12 1 -19z m2848
12 c-3 -5 -12 -10 -18 -10 -7 0 -6 4 3 10 19 12 23 12 15 0z m215 -28 c0 -21
-30 -52 -49 -51 -10 0 -8 4 7 9 30 12 38 38 22 64 -12 19 -12 20 3 7 10 -7 17
-20 17 -29z m-454 16 c4 -7 3 -10 -1 -5 -5 4 -18 -1 -29 -10 -21 -18 -21 -18
-2 5 22 26 23 26 32 10z m261 -6 c-10 -10 -14 -22 -10 -27 5 -4 0 -5 -10 -2
-10 4 -16 3 -12 -2 3 -5 1 -12 -5 -16 -5 -3 -10 3 -10 14 0 12 6 21 14 21 7 0
19 7 26 15 7 8 15 15 18 15 3 0 -2 -8 -11 -18z m-3224 -9 c-18 -2 -48 -2 -65
0 -18 2 -4 4 32 4 36 0 50 -2 33 -4z m3262 -3 c-27 -12 -43 -12 -25 0 8 5 22
9 30 9 10 0 8 -3 -5 -9z m-3372 -7 c-7 -2 -19 -2 -25 0 -7 3 -2 5 12 5 14 0
19 -2 13 -5z m3432 -12 c-29 -11 -90 -22 -82 -15 7 7 64 22 87 22 9 1 7 -3 -5
-7z m-3351 -10 c4 -5 -3 -7 -14 -4 -23 6 -26 13 -6 13 8 0 17 -4 20 -9z m-66
-18 c-10 -2 -28 -2 -40 0 -13 2 -5 4 17 4 22 1 32 -1 23 -4z m3136 -2 c3 -5
-1 -14 -8 -20 -12 -10 -14 -9 -11 6 2 10 4 19 4 21 2 5 10 2 15 -7z m186 5 c0
-2 -12 -12 -27 -21 l-28 -18 19 21 c17 20 36 29 36 18z m-3190 -62 c36 -24 90
-66 120 -94 l55 -49 -30 -1 c-19 0 -25 3 -17 8 21 14 -98 117 -193 167 -27 14
-39 23 -25 19 14 -3 54 -26 90 -50z m3013 14 c-11 -13 -28 -36 -36 -53 -9 -16
-16 -26 -17 -22 -1 20 54 97 68 97 3 0 -4 -10 -15 -22z m-2962 -15 c13 -16 12
-17 -3 -4 -10 7 -18 15 -18 17 0 8 8 3 21 -13z m150 -19 c9 -11 2 -9 -18 6
-18 13 -33 25 -33 27 0 8 38 -17 51 -33z m2756 14 c-3 -8 -6 -5 -6 6 -1 11 2
17 5 13 3 -3 4 -12 1 -19z m-40 -20 c-3 -8 -6 -5 -6 6 -1 11 2 17 5 13 3 -3 4
-12 1 -19z m-2656 -5 c13 -16 12 -17 -3 -4 -10 7 -18 15 -18 17 0 8 8 3 21
-13z m2996 -15 c-3 -7 -5 -2 -5 12 0 14 2 19 5 13 2 -7 2 -19 0 -25z m-3152 2
c10 -11 16 -20 13 -20 -3 0 -13 9 -23 20 -10 11 -16 20 -13 20 3 0 13 -9 23
-20z m164 -44 c-2 -2 -13 8 -23 22 l-19 27 24 -22 c12 -12 21 -24 18 -27z
m2654 25 c2 -10 1 -25 -4 -32 -6 -10 -9 -4 -9 19 0 36 5 42 13 13z m323 -34
c-3 -13 -15 -36 -28 -52 -22 -29 -104 -85 -122 -85 -6 0 12 13 40 30 59 33 93
71 101 113 3 15 8 25 11 23 2 -3 2 -16 -2 -29z m-1236 7 c0 -3 -12 -29 -27
-56 -25 -45 -28 -48 -40 -32 -12 17 -22 13 -151 -50 l-137 -67 122 3 c72 2
119 -1 115 -6 -3 -6 3 -6 14 -1 10 4 41 12 68 18 100 21 546 -36 546 -70 0 -9
-6 -12 -17 -9 -84 26 -286 49 -447 51 -173 2 -180 1 -223 -23 -49 -27 -52 -43
-3 -17 66 34 291 36 510 4 56 -8 80 -15 80 -25 0 -10 -8 -13 -22 -9 -151 32
-367 44 -489 25 -46 -8 -95 -14 -109 -15 -25 -1 -130 -50 -130 -61 0 -3 15 -3
33 0 17 3 64 8 102 11 l70 6 -123 -80 c-105 -69 -129 -81 -165 -81 l-42 0 83
48 c123 72 123 73 2 66 l-105 -6 40 22 c22 12 77 42 123 66 45 25 82 48 82 51
0 3 -54 4 -120 1 -66 -3 -120 -3 -120 -1 0 2 82 44 183 94 100 50 186 95 192
100 5 6 5 13 -3 21 -20 20 -14 23 48 26 33 2 60 0 60 -4z m854 -56 c13 -104
13 -148 1 -148 -9 0 -13 26 -14 87 -1 48 -4 90 -7 95 -3 4 -1 8 5 8 5 0 12
-19 15 -42z m276 38 c0 -2 -8 -10 -17 -17 -16 -13 -17 -12 -4 4 13 16 21 21
21 13z m-125 -24 c-1 -24 -14 -42 -28 -42 -7 0 -6 4 3 10 8 5 11 10 7 10 -4 0
-3 9 3 20 13 25 17 25 15 2z m166 -15 l-24 -22 19 27 c10 14 21 24 23 22 3 -3
-6 -15 -18 -27z m-21 19 c0 -2 -8 -10 -17 -17 -16 -13 -17 -12 -4 4 13 16 21
21 21 13z m-3080 -34 c-20 -10 -42 -32 -52 -52 -12 -22 -18 -28 -18 -16 0 23
63 86 87 86 11 0 5 -6 -17 -18z m2670 8 c0 -5 -2 -10 -4 -10 -3 0 -8 5 -11 10
-3 6 -1 10 4 10 6 0 11 -4 11 -10z m-70 -14 c0 -2 -7 -7 -16 -10 -8 -3 -12 -2
-9 4 6 10 25 14 25 6z m360 0 c0 -2 -8 -10 -17 -17 -16 -13 -17 -12 -4 4 13
16 21 21 21 13z m-1110 -16 c0 -5 -7 -10 -16 -10 -8 0 -12 5 -9 10 3 6 10 10
16 10 5 0 9 -4 9 -10z m710 -4 c0 -2 -8 -10 -17 -17 -16 -13 -17 -12 -4 4 13
16 21 21 21 13z m-1274 -26 c72 -13 214 -60 214 -72 0 -12 -11 -10 -74 12
-188 64 -424 66 -711 6 -39 -8 -74 -11 -78 -7 -7 7 134 38 273 60 79 12 306
13 376 1z m852 0 c216 -33 380 -69 318 -70 -10 0 -82 12 -160 27 -120 23 -167
27 -321 28 -138 0 -193 -4 -237 -17 -32 -9 -58 -14 -58 -12 0 8 61 35 97 43
55 12 283 13 361 1z m-1637 -27 c13 -16 12 -17 -3 -4 -10 7 -18 15 -18 17 0 8
8 3 21 -13z m854 -28 c104 -27 113 -31 102 -42 -4 -3 -51 4 -105 16 -172 40
-383 38 -612 -5 -43 -8 -78 -10 -83 -5 -12 12 4 16 153 40 181 29 183 30 320
26 94 -3 150 -10 225 -30z m930 -1 c149 -25 186 -36 174 -49 -3 -2 -50 4 -105
14 -226 43 -344 48 -609 26 -94 -8 -66 10 47 30 117 20 296 13 493 -21z m275
32 c0 -2 -8 -10 -17 -17 -16 -13 -17 -12 -4 4 13 16 21 21 21 13z m132 -28
c-8 -8 -9 -4 -5 13 4 13 8 18 11 10 2 -7 -1 -18 -6 -23z m228 29 c0 -2 -12
-14 -27 -28 l-28 -24 24 28 c23 25 31 32 31 24z m46 -17 c-22 -11 -42 -18 -44
-15 -5 5 57 34 73 34 6 0 -8 -9 -29 -19z m-2923 3 c-13 -2 -33 -2 -45 0 -13 2
-3 4 22 4 25 0 35 -2 23 -4z m113 -25 c29 -13 29 -14 23 -78 l-6 -65 -1 66 -2
66 -52 17 c-29 9 -39 14 -22 12 18 -3 45 -11 60 -18z m2407 -2 c-10 -13 -20
-22 -22 -20 -4 4 29 44 36 44 2 0 -4 -11 -14 -24z m-1973 -69 c-3 -2 -23 17
-44 42 l-40 46 44 -42 c24 -23 42 -44 40 -46z m2040 79 c0 -2 -8 -10 -17 -17
-16 -13 -17 -12 -4 4 13 16 21 21 21 13z m440 -10 c17 -22 8 -57 -20 -74 l-25
-14 23 19 c31 25 27 65 -8 74 -22 6 -22 7 -4 8 12 1 27 -6 34 -13z m-2490 -6
c0 -5 -4 -10 -10 -10 -5 0 -10 5 -10 10 0 6 5 10 10 10 6 0 10 -4 10 -10z
m619 0 c67 -6 143 -20 185 -34 154 -51 151 -50 195 -32 47 18 61 20 61 7 0 -4
-22 -18 -49 -29 l-49 -20 -87 29 c-185 62 -393 73 -644 34 -92 -14 -144 -14
-129 0 9 10 181 37 278 45 52 4 102 8 110 8 8 1 66 -3 129 -8z m1799 3 c-10
-2 -26 -2 -35 0 -10 3 -2 5 17 5 19 0 27 -2 18 -5z m-2760 -88 l3 -67 71 6
c38 4 77 10 87 14 14 5 14 3 3 -10 -9 -11 -38 -19 -90 -23 -42 -4 -85 -9 -94
-11 -16 -5 -18 3 -18 65 0 76 7 104 24 98 6 -2 12 -33 14 -72z m2622 -6 c0
-52 -2 -60 -16 -55 -9 3 -18 6 -20 6 -2 0 -4 29 -4 65 0 63 1 65 20 55 17 -9
20 -21 20 -71z m30 34 c-4 -42 -5 -44 -8 -15 -3 30 2 62 10 62 2 0 1 -21 -2
-47z m-2200 -18 c30 -30 52 -55 49 -55 -2 0 -29 25 -59 55 -30 30 -52 55 -49
55 2 0 29 -25 59 -55z m2060 45 c0 -5 -2 -10 -4 -10 -3 0 -8 5 -11 10 -3 6 -1
10 4 10 6 0 11 -4 11 -10z m59 -73 c1 -26 -1 -27 -44 -25 -48 3 -56 21 -12 26
23 3 27 8 27 36 0 72 26 40 29 -37z m159 76 c-10 -2 -28 -2 -40 0 -13 2 -5 4
17 4 22 1 32 -1 23 -4z m-2688 -44 c0 -30 1 -30 43 -28 23 2 51 -2 61 -8 20
-11 21 -11 -93 -28 l-44 -7 7 32 c3 18 6 43 6 57 0 14 4 21 10 18 6 -3 10 -20
10 -36z m1035 15 c90 -19 205 -56 205 -66 0 -11 6 -12 -127 24 -113 30 -126
32 -303 31 -119 0 -215 -6 -270 -16 -84 -14 -100 -14 -100 3 0 8 111 26 250
41 95 9 254 2 345 -17z m1245 20 c0 -8 -19 -13 -24 -6 -3 5 1 9 9 9 8 0 15 -2
15 -3z m-2220 -46 c0 -5 -9 -8 -20 -8 -13 0 -20 7 -20 20 0 18 2 19 20 8 11
-7 20 -16 20 -20z m1210 22 c0 -5 -6 -10 -14 -10 -8 0 -18 5 -21 10 -3 6 3 10
14 10 12 0 21 -4 21 -10z m970 -9 c-5 -11 -15 -23 -21 -27 -6 -3 -3 5 6 20 20
30 30 35 15 7z m-2055 -11 c10 -11 16 -20 13 -20 -3 0 -13 9 -23 20 -10 11
-16 20 -13 20 3 0 13 -9 23 -20z m59 -19 c-3 -3 -15 6 -27 18 l-22 24 27 -19
c14 -10 24 -21 22 -23z m2046 36 c0 -2 -15 -16 -32 -33 l-33 -29 29 33 c28 30
36 37 36 29z m200 -12 c0 -8 -7 -15 -15 -15 -9 0 -12 6 -9 15 4 8 10 15 15 15
5 0 9 -7 9 -15z m-1617 -12 c-29 -2 -78 -2 -110 0 -32 2 -8 3 52 3 61 0 87 -1
58 -3z m997 -3 l55 -7 -63 -2 c-76 -1 -109 -18 -146 -74 -14 -23 -26 -36 -26
-31 0 20 59 92 82 101 16 5 -11 10 -87 14 l-110 5 120 1 c66 1 145 -2 175 -7z
m224 -6 c3 -8 2 -12 -4 -9 -6 3 -10 10 -10 16 0 14 7 11 14 -7z m48 -6 c-11
-11 -32 -3 -32 12 0 4 9 6 21 3 13 -4 17 -9 11 -15z m560 5 c24 -21 23 -45 -2
-68 -18 -16 -23 -17 -46 -5 -22 12 -27 12 -34 0 -8 -13 -10 -12 -10 3 0 20 22
22 49 5 15 -9 23 -9 36 2 20 17 16 49 -8 64 -15 9 -22 7 -37 -11 -10 -13 -26
-23 -37 -22 -16 0 -16 1 2 9 12 4 27 15 34 24 17 20 30 20 53 -1z m-2059 0
c-37 -4 -43 -8 -53 -38 -6 -19 -8 -40 -4 -47 7 -11 -31 13 -85 54 -24 18 -24
18 -2 18 12 0 20 -4 17 -9 -7 -11 41 -44 53 -37 5 3 11 15 14 26 4 16 0 20
-21 21 -23 1 -22 3 8 9 19 4 53 7 75 7 l40 0 -42 -4z m350 0 c-7 -2 -21 -2
-30 0 -10 3 -4 5 12 5 17 0 24 -2 18 -5z m562 -2 c-6 -5 -41 -11 -80 -14 l-70
-5 55 13 c67 16 108 18 95 6z m-502 -8 c-7 -2 -19 -2 -25 0 -7 3 -2 5 12 5 14
0 19 -2 13 -5z m920 -13 c-3 -11 -9 -20 -14 -20 -5 0 -6 6 -3 14 3 8 -2 16
-13 19 -12 3 -10 5 9 6 21 1 25 -3 21 -19z m197 17 c0 -2 -10 -12 -22 -23
l-23 -19 19 23 c18 21 26 27 26 19z m-1393 -151 c29 -19 77 -44 108 -55 l55
-21 46 25 c26 14 61 25 78 24 26 -1 24 -3 -14 -10 -25 -5 -57 -18 -73 -30 -25
-18 -32 -19 -65 -8 -102 33 -224 119 -272 192 -13 19 1 8 32 -25 29 -31 77
-72 105 -92z m320 138 c-3 -3 -12 -4 -19 -1 -8 3 -5 6 6 6 11 1 17 -2 13 -5z
m947 -2 c3 -5 -8 -6 -25 -4 -16 2 -29 6 -29 8 0 8 49 4 54 -4z m-884 -12 c11
-8 7 -9 -15 -4 -37 8 -45 14 -19 14 10 0 26 -5 34 -10z m938 -10 c-7 -10 -14
-17 -17 -15 -4 4 18 35 25 35 2 0 -1 -9 -8 -20z m-1603 -10 c10 -11 16 -20 13
-20 -3 0 -13 9 -23 20 -10 11 -16 20 -13 20 3 0 13 -9 23 -20z m1055 16 c0 -2
-36 -27 -80 -55 -44 -28 -80 -48 -80 -46 0 5 150 104 158 105 1 0 2 -2 2 -4z
m1627 -88 c-2 -18 -4 -4 -4 32 0 36 2 50 4 33 2 -18 2 -48 0 -65z m-3017 78
c0 -2 -7 -7 -16 -10 -8 -3 -12 -2 -9 4 6 10 25 14 25 6z m1010 -16 c-19 -11
-39 -19 -45 -19 -5 0 6 8 25 19 19 11 40 19 45 19 6 0 -6 -8 -25 -19z m909
-54 c1 -4 -11 -5 -26 -2 -16 4 -42 10 -60 14 -31 7 -31 8 -17 32 12 21 14 21
9 4 -4 -17 0 -23 17 -27 13 -3 33 -9 46 -12 21 -7 22 -6 12 19 -5 15 -10 33
-9 39 1 12 27 -50 28 -67z m-1663 32 l29 -33 -32 29 c-31 28 -38 36 -30 36 2
0 16 -15 33 -32z m8 -60 c-3 -4 -11 -8 -17 -7 -8 0 -7 2 1 6 10 4 2 17 -25 47
l-38 41 42 -39 c23 -22 40 -43 37 -48z m1336 78 c0 -2 -8 -10 -17 -17 -16 -13
-17 -12 -4 4 13 16 21 21 21 13z m50 1 c0 -2 -12 -14 -27 -28 l-28 -24 24 28
c23 25 31 32 31 24z m100 -1 c0 -2 -8 -10 -17 -17 -16 -13 -17 -12 -4 4 13 16
21 21 21 13z m680 0 c0 -3 -4 -8 -10 -11 -5 -3 -10 -1 -10 4 0 6 5 11 10 11 6
0 10 -2 10 -4z m-1915 -46 c21 -22 37 -40 34 -40 -3 0 -23 18 -44 40 -21 22
-37 40 -34 40 3 0 23 -18 44 -40z m1267 33 c-6 -2 -9 -10 -6 -15 4 -7 2 -8 -4
-4 -7 4 -12 2 -12 -3 0 -6 -5 -11 -12 -11 -6 0 -3 9 7 20 10 11 23 20 29 19 6
0 6 -3 -2 -6z m-1852 -20 c0 -12 -3 -14 -8 -7 -4 7 -18 14 -32 17 -21 4 -20 4
8 6 24 1 32 -3 32 -16z m1740 14 c0 -2 -12 -14 -27 -28 l-28 -24 24 28 c23 25
31 32 31 24z m-1837 -14 c-13 -2 -33 -2 -45 0 -13 2 -3 4 22 4 25 0 35 -2 23
-4z m1326 3 c-2 -2 -13 -8 -25 -14 -16 -9 -21 -8 -21 4 0 8 10 14 25 14 14 0
23 -2 21 -4z m1201 -12 c-8 -8 -23 -20 -34 -25 -13 -7 -9 -1 9 15 34 29 43 33
25 10z m20 -20 c-22 -20 -40 -40 -40 -44 0 -7 112 -202 147 -257 4 -7 64 -25
133 -39 69 -15 127 -29 128 -30 2 -1 -19 -36 -47 -77 -154 -229 -333 -398
-527 -498 -66 -35 -71 -39 -58 -56 7 -10 14 -23 14 -28 0 -14 -150 -93 -255
-136 -197 -79 -373 -114 -637 -129 -413 -22 -811 55 -1093 213 -76 43 -84 52
-72 87 4 11 -14 25 -66 50 -135 66 -283 188 -401 330 -57 68 -176 233 -176
243 0 3 18 7 39 11 22 3 80 15 130 27 l90 21 77 134 c43 74 81 134 85 134 5 0
27 -28 51 -62 99 -147 291 -309 477 -402 55 -28 76 -45 84 -66 13 -34 61 -58
180 -89 131 -34 243 -46 447 -45 198 0 293 10 433 45 124 31 185 60 196 91 7
20 30 37 93 69 122 61 243 148 330 236 73 73 167 189 168 205 0 4 -15 5 -32 3
l-33 -5 29 10 c16 5 32 8 35 6 3 -1 24 17 46 40 22 23 46 42 53 43 6 0 -6 -15
-28 -35z m-2308 19 c-18 -3 -36 -11 -39 -19 -7 -18 24 -54 45 -54 9 0 13 -3 9
-6 -12 -12 -48 9 -62 36 -14 26 -13 30 3 39 9 6 31 10 47 9 30 -1 30 -1 -3 -5z
m976 0 c-16 -2 -40 -2 -55 0 -16 2 -3 4 27 4 30 0 43 -2 28 -4z m672 3 c0 -2
-8 -10 -17 -17 -16 -13 -17 -12 -4 4 13 16 21 21 21 13z m-1540 -31 c57 -29
65 -38 46 -54 -11 -9 -14 -8 -12 6 1 12 -16 27 -53 46 -30 15 -49 27 -42 27 6
0 34 -11 61 -25z m-217 -38 c14 -26 22 -45 16 -42 -10 7 -49 79 -49 91 0 10 3
6 33 -49z m1557 21 c-7 -12 -23 -38 -37 -56 l-24 -32 -25 29 c-16 19 -40 33
-67 39 -23 6 -32 10 -20 11 31 1 68 -14 92 -40 l20 -22 20 24 c11 13 25 37 32
52 6 15 14 26 16 23 3 -2 -1 -15 -7 -28z m-440 17 c0 -6 -85 -55 -96 -55 -5 0
14 13 41 30 55 32 55 32 55 25z m121 -24 c-31 -23 -90 -57 -76 -44 13 14 88
63 95 63 3 0 -6 -9 -19 -19z m779 -5 c0 -13 -7 -27 -16 -30 -20 -8 -15 -45 8
-60 13 -8 21 -6 36 7 17 16 20 16 25 2 4 -8 17 -16 29 -16 18 -1 19 -2 5 -6
-10 -3 -24 0 -32 7 -10 8 -18 8 -34 -1 -39 -25 -82 41 -46 71 23 19 18 40 -9
40 -16 0 -38 -14 -60 -37 -30 -32 -33 -39 -18 -44 12 -4 8 -7 -14 -11 l-32 -4
47 53 c38 43 52 53 79 53 27 0 32 -4 32 -24z m70 2 c0 -13 -7 -32 -15 -42 -13
-17 -15 -18 -15 -3 0 9 -4 17 -10 17 -5 0 -10 11 -10 25 0 20 5 25 25 25 19 0
25 -5 25 -22z m127 16 c-3 -3 -12 -4 -19 -1 -8 3 -5 6 6 6 11 1 17 -2 13 -5z
m-3000 -51 c-3 -10 -5 -2 -5 17 0 19 2 27 5 18 2 -10 2 -26 0 -35z m1113 44
c0 -2 -10 -12 -22 -23 l-23 -19 19 23 c18 21 26 27 26 19z m295 -17 c10 -11
16 -20 13 -20 -3 0 -13 9 -23 20 -10 11 -16 20 -13 20 3 0 13 -9 23 -20z
m1523 2 c-21 -4 -21 -4 -6 -37 7 -16 8 -29 2 -35 -5 -5 -10 0 -11 13 -1 12 -4
34 -8 49 -6 24 -5 26 16 20 19 -5 20 -7 7 -10z m-2107 -15 c-10 -9 -11 -8 -5
6 3 10 9 15 12 12 3 -3 0 -11 -7 -18z m1869 20 c0 -2 -17 -19 -37 -38 l-38
-34 34 38 c33 34 41 42 41 34z m-587 -28 c-23 -12 -57 -37 -76 -58 -30 -33
-37 -36 -86 -36 -47 0 -57 4 -92 38 l-40 37 53 -1 c50 -2 51 -2 15 -8 l-39 -6
26 -24 c18 -17 38 -24 73 -25 43 -1 53 3 88 36 40 37 91 68 110 67 6 0 -9 -9
-32 -20z m926 5 c9 -8 -45 -2 -64 6 -14 7 -8 8 20 3 22 -3 42 -7 44 -9z m798
-21 c-3 -10 -5 -4 -5 12 0 17 2 24 5 18 2 -7 2 -21 0 -30z m-2970 11 c-3 -3
-12 -4 -19 -1 -8 3 -5 6 6 6 11 1 17 -2 13 -5z m613 -20 c0 -2 -9 0 -20 6 -11
6 -20 13 -20 16 0 2 9 0 20 -6 11 -6 20 -13 20 -16z m324 17 c4 -5 -3 -7 -14
-4 -23 6 -26 13 -6 13 8 0 17 -4 20 -9z m-1787 -53 c-3 -7 -5 -2 -5 12 0 14 2
19 5 13 2 -7 2 -19 0 -25z m861 25 c-10 -2 -26 -2 -35 0 -10 3 -2 5 17 5 19 0
27 -2 18 -5z m2949 -35 c-3 -7 -5 -2 -5 12 0 14 2 19 5 13 2 -7 2 -19 0 -25z
m-2791 -35 c6 -30 37 -46 104 -54 l55 -6 -48 -2 c-80 -2 -128 35 -126 96 1 20
3 22 6 8 2 -11 6 -30 9 -42z m1724 42 c27 -32 -64 -130 -131 -140 l-34 -5 35
11 c47 15 85 43 109 83 26 42 26 45 -1 56 -16 6 -18 9 -7 9 9 1 22 -6 29 -14z
m-1690 -10 c-7 -9 -15 -13 -19 -10 -3 3 1 10 9 15 21 14 24 12 10 -5z m148 -2
c-43 -2 -78 -7 -78 -11 0 -4 14 -20 32 -35 18 -16 26 -25 18 -21 -23 11 -51
37 -61 56 -9 17 -3 18 78 16 l88 -2 -77 -3z m-1191 -25 c-3 -8 -6 -5 -6 6 -1
11 2 17 5 13 3 -3 4 -12 1 -19z m1073 19 c0 -2 -10 -12 -22 -23 l-23 -19 19
23 c18 21 26 27 26 19z m253 -4 c-7 -2 -21 -2 -30 0 -10 3 -4 5 12 5 17 0 24
-2 18 -5z m1368 -16 c-10 -9 -11 -8 -5 6 3 10 9 15 12 12 3 -3 0 -11 -7 -18z
m-1318 6 c-7 -2 -19 -2 -25 0 -7 3 -2 5 12 5 14 0 19 -2 13 -5z m2414 -15 c-3
-8 -6 -5 -6 6 -1 11 2 17 5 13 3 -3 4 -12 1 -19z m-2337 2 c20 -6 21 -8 5 -8
-11 0 -31 4 -45 8 -20 6 -21 8 -5 8 11 0 31 -4 45 -8z m-349 -17 c13 -16 12
-17 -3 -4 -10 7 -18 15 -18 17 0 8 8 3 21 -13z m1486 11 c-3 -3 -12 -4 -19 -1
-8 3 -5 6 6 6 11 1 17 -2 13 -5z m-2580 -36 c-3 -7 -5 -2 -5 12 0 14 2 19 5
13 2 -7 2 -19 0 -25z m1549 13 c7 -4 5 -16 -9 -36 -18 -28 -18 -24 -3 16 5 11
-3 18 -31 27 l-38 11 35 -6 c19 -3 40 -8 46 -12z m2209 -62 c-23 -68 -28 -58
-7 14 9 31 18 52 20 47 2 -5 -4 -33 -13 -61z m-1472 54 c-7 -2 -21 -2 -30 0
-10 3 -4 5 12 5 17 0 24 -2 18 -5z m57 -13 c18 -12 2 -12 -25 0 -13 6 -15 9
-5 9 8 0 22 -4 30 -9z m-77 -20 c3 -11 1 -20 -4 -20 -5 0 -9 9 -9 20 0 11 2
20 4 20 2 0 6 -9 9 -20z m186 -16 c10 -9 -35 -3 -49 6 -11 8 -7 9 15 4 17 -4
32 -8 34 -10z m-142 -10 c-3 -3 -12 -4 -19 -1 -8 3 -5 6 6 6 11 1 17 -2 13 -5z
m196 -1 c-7 -2 -21 -2 -30 0 -10 3 -4 5 12 5 17 0 24 -2 18 -5z m-156 -9 c-3
-3 -12 -4 -19 -1 -8 3 -5 6 6 6 11 1 17 -2 13 -5z m-808 -31 c9 -18 9 -23 -1
-23 -7 0 -14 12 -14 26 -2 28 -1 28 15 -3z m848 21 c-3 -3 -12 -4 -19 -1 -8 3
-5 6 6 6 11 1 17 -2 13 -5z m-2347 -39 c0 -5 -5 -3 -10 5 -5 8 -10 20 -10 25
0 6 5 3 10 -5 5 -8 10 -19 10 -25z m2421 12 c41 -27 49 -61 19 -77 -12 -6 -24
-9 -27 -7 -2 3 5 8 17 12 35 11 21 45 -29 72 -24 13 -37 23 -29 23 8 0 30 -10
49 -23z m1260 -34 c-12 -20 -14 -14 -5 12 4 9 9 14 11 11 3 -2 0 -13 -6 -23z
m-1537 6 c-2 -3 9 -15 24 -26 16 -11 39 -41 52 -66 20 -38 22 -49 12 -59 -11
-11 -12 -10 -7 4 12 30 -38 102 -94 136 -31 19 -32 20 -8 19 14 -1 23 -5 21
-8z m-2124 -34 c0 -5 -5 -3 -10 5 -5 8 -10 20 -10 25 0 6 5 3 10 -5 5 -8 10
-19 10 -25z m1417 29 c-3 -3 -12 -4 -19 -1 -8 3 -5 6 6 6 11 1 17 -2 13 -5z
m823 -20 c55 -20 22 -16 -45 6 -33 11 -44 17 -25 13 19 -3 50 -11 70 -19z
m-890 -2 c-19 -9 -40 -28 -47 -42 -8 -15 -13 -19 -13 -9 0 29 45 68 80 69 8 0
-1 -8 -20 -18z m240 14 c0 -2 -9 -6 -20 -9 -11 -3 -18 -1 -14 4 5 9 34 13 34
5z m326 -53 c4 -13 4 -27 0 -30 -3 -4 -6 2 -6 12 0 18 -27 55 -40 55 -20 0
-55 -70 -61 -120 l-6 -55 -2 49 c-1 41 5 58 31 97 31 44 34 46 55 31 13 -8 26
-25 29 -39z m489 47 c-3 -5 -12 -10 -18 -10 -7 0 -6 4 3 10 19 12 23 12 15 0z
m1221 -69 c-15 -28 -28 -51 -31 -51 -3 0 7 25 22 55 15 30 29 53 31 51 2 -2
-8 -27 -22 -55z m-1267 33 c9 -8 -45 -2 -64 6 -14 7 -8 8 20 3 22 -3 42 -7 44
-9z m-2345 -10 c3 -8 2 -12 -4 -9 -6 3 -10 10 -10 16 0 14 7 11 14 -7z m1330
1 c-13 -10 -15 -14 -5 -15 8 0 12 -3 8 -6 -3 -3 -11 -3 -17 1 -13 8 5 35 23
35 6 0 2 -7 -9 -15z m217 -47 c33 -32 37 -38 14 -24 -16 11 -36 27 -42 37 -8
10 -22 16 -35 13 -21 -4 -22 -4 -3 5 11 5 20 10 21 10 0 1 21 -18 45 -41z
m-106 12 c-27 -12 -43 -12 -25 0 8 5 22 9 30 9 10 0 8 -3 -5 -9z m-125 -10 c8
-5 11 -10 5 -10 -5 0 -17 5 -25 10 -8 5 -10 10 -5 10 6 0 17 -5 25 -10z
m-1266 -48 c29 -57 123 -185 192 -261 155 -171 411 -348 647 -446 37 -15 66
-30 64 -32 -6 -5 -152 59 -232 102 -232 125 -445 304 -588 494 -54 72 -124
191 -113 191 3 0 17 -22 30 -48z m1339 41 c-7 -2 -19 -2 -25 0 -7 3 -2 5 12 5
14 0 19 -2 13 -5z m524 -15 c-3 -8 -6 -5 -6 6 -1 11 2 17 5 13 3 -3 4 -12 1
-19z m158 -18 c28 -6 14 -6 -45 -3 -47 3 -87 7 -89 9 -8 7 94 3 134 -6z m1451
-92 c-155 -236 -380 -429 -672 -578 -65 -33 -123 -60 -129 -60 -5 0 48 30 119
66 301 151 553 372 696 608 19 30 36 54 38 52 2 -3 -21 -42 -52 -88z m-1856
72 c18 -12 2 -12 -25 0 -13 6 -15 9 -5 9 8 0 22 -4 30 -9z m498 3 c-10 -2 -26
-2 -35 0 -10 3 -2 5 17 5 19 0 27 -2 18 -5z m-428 -33 c21 -11 41 -24 45 -29
4 -8 -77 32 -94 46 -13 10 15 0 49 -17z m950 -695 c-14 -8 -32 -14 -40 -14 -8
0 -1 6 15 14 40 18 57 18 25 0z m-1680 -15 c18 -12 2 -12 -25 0 -13 6 -15 9
-5 9 8 0 22 -4 30 -9z m1610 -9 c-8 -5 -26 -11 -40 -15 -21 -5 -20 -3 5 9 32
15 60 20 35 6z m-1510 -28 c30 -11 31 -12 6 -8 -16 4 -43 13 -60 20 -23 11
-25 13 -6 8 14 -3 41 -12 60 -20z m1407 -9 c-3 -3 -12 -4 -19 -1 -8 3 -5 6 6
6 11 1 17 -2 13 -5z m-1340 -10 c-3 -3 -12 -4 -19 -1 -8 3 -5 6 6 6 11 1 17
-2 13 -5z m1300 0 c-3 -3 -12 -4 -19 -1 -8 3 -5 6 6 6 11 1 17 -2 13 -5z
m-1260 -10 c-3 -3 -12 -4 -19 -1 -8 3 -5 6 6 6 11 1 17 -2 13 -5z m40 -10 c-3
-3 -12 -4 -19 -1 -8 3 -5 6 6 6 11 1 17 -2 13 -5z m1150 0 c-3 -3 -12 -4 -19
-1 -8 3 -5 6 6 6 11 1 17 -2 13 -5z m-1110 -10 c-3 -3 -12 -4 -19 -1 -8 3 -5
6 6 6 11 1 17 -2 13 -5z m1066 -1 c-7 -2 -19 -2 -25 0 -7 3 -2 5 12 5 14 0 19
-2 13 -5z m-1020 -10 c-7 -2 -19 -2 -25 0 -7 3 -2 5 12 5 14 0 19 -2 13 -5z
m974 1 c-3 -3 -12 -4 -19 -1 -8 3 -5 6 6 6 11 1 17 -2 13 -5z m-924 -11 c-7
-2 -19 -2 -25 0 -7 3 -2 5 12 5 14 0 19 -2 13 -5z m880 0 c-7 -2 -19 -2 -25 0
-7 3 -2 5 12 5 14 0 19 -2 13 -5z m-800 -10 c-7 -2 -21 -2 -30 0 -10 3 -4 5
12 5 17 0 24 -2 18 -5z m730 0 c-7 -2 -21 -2 -30 0 -10 3 -4 5 12 5 17 0 24
-2 18 -5z m-655 -10 c-10 -2 -28 -2 -40 0 -13 2 -5 4 17 4 22 1 32 -1 23 -4z
m580 0 c-10 -2 -26 -2 -35 0 -10 3 -2 5 17 5 19 0 27 -2 18 -5z m-475 -10
c-13 -2 -35 -2 -50 0 -16 2 -5 4 22 4 28 0 40 -2 28 -4z m390 0 c-13 -2 -35
-2 -50 0 -16 2 -5 4 22 4 28 0 40 -2 28 -4z m-170 -10 c-29 -2 -77 -2 -105 0
-29 2 -6 3 52 3 58 0 81 -1 53 -3z"/>
<path d="M1542 4684 c1 -9 9 -19 16 -22 9 -3 13 2 10 14 -1 9 -9 19 -16 22 -9
3 -13 -2 -10 -14z"/>
<path d="M2895 4600 c3 -5 8 -10 11 -10 2 0 4 5 4 10 0 6 -5 10 -11 10 -5 0
-7 -4 -4 -10z"/>
<path d="M950 4503 c-14 -9 -27 -18 -29 -19 -2 -2 4 -15 13 -29 9 -14 14 -31
10 -38 -4 -7 -4 -9 1 -5 4 4 14 0 21 -10 12 -16 15 -16 41 -2 37 20 43 70 14
99 -25 25 -39 26 -71 4z m54 -39 c16 -41 -14 -49 -32 -9 -10 22 -9 25 7 25 10
0 22 -7 25 -16z"/>
<path d="M980 4461 c0 -5 5 -13 10 -16 6 -3 10 -2 10 4 0 5 -4 13 -10 16 -5 3
-10 2 -10 -4z"/>
<path d="M3066 4543 c-9 -9 -7 -33 3 -33 12 0 22 28 12 34 -5 3 -11 3 -15 -1z"/>
<path d="M3314 4385 c-21 -32 -11 -72 21 -87 29 -13 55 -4 62 22 3 11 9 17 14
14 5 -3 9 6 9 19 0 55 -76 78 -106 32z m69 -26 c5 -20 5 -20 -15 -2 -21 18
-21 18 -16 -9 4 -19 1 -25 -9 -21 -16 6 -17 25 -1 41 18 18 35 14 41 -9z"/>
<path d="M2329 4241 c-18 -15 -23 -28 -23 -60 2 -47 9 -60 28 -46 118 86 129
98 111 111 -27 20 -89 17 -116 -5z m40 -4 c-2 -1 -13 -9 -24 -17 -19 -14 -19
-14 -6 3 7 9 18 17 24 17 6 0 8 -1 6 -3z m61 -4 c0 -9 -100 -76 -100 -68 0 2
18 17 40 31 22 15 37 30 34 35 -3 5 2 9 10 9 9 0 16 -3 16 -7z"/>
<path d="M682 4249 c2 -7 10 -15 17 -17 8 -3 12 1 9 9 -2 7 -10 15 -17 17 -8
3 -12 -1 -9 -9z"/>
<path d="M445 3960 c3 -5 14 -10 23 -10 15 0 15 2 2 10 -20 13 -33 13 -25 0z"/>
<path d="M3733 3968 c-13 -6 -23 -15 -23 -20 0 -7 31 8 59 29 10 7 -16 1 -36
-9z"/>
<path d="M1890 3630 c0 -5 7 -10 15 -10 8 0 15 5 15 10 0 6 -7 10 -15 10 -8 0
-15 -4 -15 -10z"/>
<path d="M1780 2270 c0 -6 40 -10 100 -10 60 0 100 4 100 10 0 6 -40 10 -100
10 -60 0 -100 -4 -100 -10z"/>
<path d="M2000 2210 c0 -5 23 -10 50 -10 28 0 50 5 50 10 0 6 -22 10 -50 10
-27 0 -50 -4 -50 -10z"/>
<path d="M1488 2131 c-10 -20 -18 -41 -18 -44 0 -4 189 -7 420 -7 306 0 420 3
420 11 0 7 -9 27 -21 45 l-21 34 -381 0 -382 -1 -17 -38z"/>
<path d="M2380 2133 c0 -5 29 -25 65 -45 63 -37 106 -46 134 -29 10 6 -2 9
-34 9 -33 -1 -50 3 -53 12 -10 29 -52 60 -82 60 -16 0 -30 -3 -30 -7z"/>
<path d="M3468 2290 c4 -25 52 -74 52 -53 0 9 -48 83 -54 83 -1 0 -1 -13 2
-30z"/>
<path d="M3410 2235 c0 -14 38 -74 44 -68 3 3 15 -2 26 -12 16 -14 23 -16 32
-7 9 9 3 21 -27 52 -33 34 -75 53 -75 35z"/>
<path d="M826 1458 c-7 -13 -26 -42 -41 -66 l-26 -44 27 -36 c83 -110 240
-251 401 -360 l91 -62 42 65 c42 68 46 69 87 32 13 -11 25 -18 27 -16 10 10
-13 28 -84 64 -181 93 -362 244 -459 383 -24 34 -45 62 -47 62 -2 0 -10 -10
-18 -22z"/>
<path d="M3287 1442 c-101 -153 -284 -310 -474 -405 -38 -20 -75 -42 -82 -51
-20 -24 -2 -19 35 9 18 14 35 25 37 25 2 0 21 -27 41 -60 21 -33 40 -60 44
-60 14 0 176 112 247 170 76 63 208 197 243 247 l22 31 -38 66 c-20 36 -40 66
-43 66 -4 0 -18 -17 -32 -38z"/>
<path d="M738 1191 c-33 -58 -33 -61 -11 -61 25 0 103 31 103 41 0 13 -12 11
-55 -7 l-37 -15 21 34 c11 19 21 39 21 46 0 23 -16 9 -42 -38z"/>
<path d="M3331 1194 c-12 -15 -21 -30 -21 -34 0 -4 17 -21 39 -38 l38 -31 28
29 c34 35 26 53 -9 21 -29 -27 -47 -10 -20 20 9 10 14 22 10 26 -4 4 -16 -3
-26 -17 -14 -18 -22 -22 -30 -14 -7 7 -5 16 10 29 11 10 20 22 20 27 0 16 -19
8 -39 -18z"/>
<path d="M545 1193 c-11 -2 -37 -9 -58 -14 l-38 -10 63 -92 c82 -120 279 -319
381 -385 95 -62 183 -106 195 -98 5 3 25 32 45 65 l36 60 -67 42 c-128 81
-228 163 -364 301 -81 81 -145 138 -155 137 -10 -1 -27 -3 -38 -6z"/>
<path d="M3447 1085 c-60 -63 -141 -141 -180 -173 -73 -60 -239 -178 -260
-185 -11 -3 23 -70 61 -117 l19 -23 79 43 c138 75 266 181 377 310 83 97 169
222 160 230 -8 7 -116 30 -137 30 -6 0 -60 -52 -119 -115z"/>
<path d="M850 1166 c0 -2 9 -6 20 -9 11 -3 18 -1 14 4 -5 9 -34 13 -34 5z"/>
<path d="M800 1115 c-18 -19 -31 -38 -27 -41 7 -7 85 55 86 69 2 18 -28 4 -59
-28z"/>
<path d="M3247 1107 l-27 -23 39 -38 c25 -24 44 -35 52 -31 9 6 8 11 -5 21
-25 18 -11 34 23 28 16 -4 32 -1 35 5 5 7 -2 11 -18 11 -18 0 -25 6 -28 23 -4
30 -36 32 -71 4z m53 -6 c0 -15 -28 -33 -40 -26 -8 5 -8 11 1 21 13 15 39 19
39 5z"/>
<path d="M841 1086 c-17 -18 -22 -32 -17 -50 6 -25 37 -42 56 -31 15 9 2 25
-15 19 -25 -10 -30 26 -7 49 17 17 23 18 36 7 9 -7 16 -19 16 -26 0 -8 5 -14
10 -14 17 0 11 36 -8 53 -26 23 -45 21 -71 -7z"/>
<path d="M3166 1034 l-29 -25 38 -39 c36 -37 73 -47 41 -11 -24 27 -19 32 24
25 43 -7 57 9 18 19 -13 4 -27 16 -33 28 -14 32 -26 32 -59 3z m44 -13 c0 -5
-6 -14 -14 -20 -16 -13 -32 2 -21 19 8 12 35 13 35 1z"/>
<path d="M950 1041 c0 -6 5 -13 11 -17 7 -4 -1 -18 -21 -39 -17 -18 -28 -35
-22 -39 5 -3 22 8 37 24 19 20 35 28 47 24 26 -8 22 3 -9 31 -30 26 -43 31
-43 16z"/>
<path d="M1322 930 c-24 -38 -40 -75 -37 -80 11 -18 145 -77 235 -104 383
-114 972 -87 1275 59 106 52 103 43 50 124 l-46 71 -33 -25 c-74 -56 -226
-107 -406 -137 -98 -16 -472 -15 -575 1 -174 27 -341 87 -389 140 -11 12 -22
21 -25 21 -3 0 -25 -32 -49 -70z"/>
<path d="M3077 962 c-47 -51 20 -120 76 -78 23 18 21 51 -5 76 -27 25 -50 26
-71 2z m58 -18 c32 -32 -5 -73 -40 -44 -18 15 -19 47 -2 53 20 9 25 8 42 -9z"/>
<path d="M1000 950 c-11 -11 -20 -27 -20 -35 0 -21 36 -55 58 -55 22 0 62 40
62 62 0 21 -32 48 -58 48 -12 0 -31 -9 -42 -20z m74 -17 c9 -22 -27 -58 -48
-50 -19 7 -21 38 -4 55 17 17 45 15 52 -5z"/>
<path d="M2985 895 c-16 -13 -26 -27 -22 -31 3 -4 13 -2 20 5 11 9 19 4 38
-24 13 -19 27 -35 31 -35 15 0 17 19 2 31 -27 22 -37 49 -23 65 20 24 -12 16
-46 -11z"/>
<path d="M1100 870 c-33 -42 -34 -66 -2 -37 23 21 32 13 32 -25 0 -15 5 -28
10 -28 6 0 10 11 10 25 0 18 5 25 19 25 33 0 35 32 4 57 -15 13 -31 23 -35 23
-3 0 -21 -18 -38 -40z m70 -11 c0 -12 -27 -11 -35 1 -11 17 5 32 21 19 8 -6
14 -15 14 -20z"/>
<path d="M1288 727 c-17 -26 -23 -43 -16 -46 6 -2 17 4 24 14 16 21 34 11 34
-20 0 -12 7 -26 16 -29 14 -5 16 -1 11 24 -5 25 -3 30 12 30 34 0 33 29 -2 50
-17 11 -36 20 -42 20 -5 0 -22 -19 -37 -43z m82 -7 c0 -6 -6 -10 -12 -10 -22
0 -41 17 -34 29 8 13 46 -3 46 -19z"/>
<path d="M2803 753 c-9 -3 -11 -19 -6 -51 7 -55 19 -74 29 -46 11 28 25 35 58
28 16 -3 26 -2 23 3 -12 18 -93 70 -104 66z m37 -38 c10 -12 10 -15 -4 -15 -9
0 -16 7 -16 15 0 8 2 15 4 15 2 0 9 -7 16 -15z"/>
<path d="M1416 671 c-21 -22 -33 -41 -28 -45 6 -3 13 -2 17 4 10 16 34 12 52
-10 27 -31 34 -24 31 32 -4 67 -21 72 -72 19z m40 -18 c-10 -10 -19 5 -10 18
6 11 8 11 12 0 2 -7 1 -15 -2 -18z"/>
<path d="M1600 700 c-8 -5 -11 -12 -7 -16 4 -4 13 -2 19 4 15 15 7 24 -12 12z"/>
<path d="M2673 703 c-9 -3 -6 -17 10 -49 20 -42 24 -45 52 -40 16 4 34 11 40
18 7 8 1 9 -22 5 -30 -6 -34 -4 -50 32 -10 21 -23 36 -30 34z"/>
<path d="M1123 611 c-24 -38 -43 -73 -43 -79 0 -5 40 -31 89 -56 256 -132 555
-196 921 -196 372 0 596 45 869 176 74 36 136 66 138 68 2 2 -17 34 -42 72
-25 38 -46 72 -48 77 -1 4 -31 -8 -67 -27 -433 -229 -1269 -230 -1704 -3 -34
18 -63 33 -66 34 -3 2 -24 -28 -47 -66z m533 -152 c6 -5 11 -27 11 -49 0 -49
-17 -62 -67 -51 -34 7 -35 8 -32 52 1 24 4 49 6 55 5 12 64 7 82 -7z m984 -26
c31 -49 26 -73 -11 -50 -14 9 -22 7 -37 -6 -27 -24 -45 -22 -39 6 3 12 9 39
12 60 10 53 37 50 75 -10z m-141 18 c20 -13 3 -32 -24 -25 -28 7 -39 -9 -25
-37 11 -19 13 -19 29 -5 21 19 41 21 41 3 0 -22 -22 -37 -55 -37 -17 0 -36 5
-43 12 -7 7 -12 26 -12 43 0 17 5 36 12 43 14 14 57 16 77 3z m-709 -42 c6
-22 14 -47 17 -55 3 -9 -2 -14 -16 -14 -12 0 -21 5 -21 11 0 7 -14 8 -40 4
-45 -8 -46 -6 -24 38 24 46 34 57 55 57 13 0 21 -12 29 -41z m151 15 c9 -11 8
-18 -1 -29 -10 -12 -10 -21 -2 -40 10 -22 9 -25 -8 -25 -12 0 -25 11 -33 26
l-12 27 -5 -24 c-9 -37 -34 -30 -38 10 -6 64 2 77 47 73 22 -2 45 -10 52 -18z
m429 -6 c0 -18 3 -43 6 -55 8 -31 -21 -31 -53 -1 l-23 21 0 -26 c0 -16 -6 -27
-14 -27 -16 0 -26 30 -26 78 0 25 4 32 20 32 11 0 25 -9 32 -20 15 -24 33 -27
24 -4 -8 20 1 34 20 34 9 0 14 -11 14 -32z m-296 9 c16 -12 17 -17 6 -36 -8
-17 -9 -26 -1 -34 16 -16 13 -27 -8 -27 -10 0 -26 10 -34 23 l-16 22 0 -22
c-1 -16 -7 -23 -21 -23 -17 0 -20 7 -20 48 0 27 3 52 7 55 11 12 68 8 87 -6z
m139 -40 c22 -54 18 -66 -18 -47 -20 10 -28 11 -37 2 -7 -7 -20 -12 -29 -12
-15 0 -15 5 4 55 26 72 51 73 80 2z"/>
<path d="M1615 430 c3 -5 8 -10 11 -10 2 0 4 5 4 10 0 6 -5 10 -11 10 -5 0 -7
-4 -4 -10z"/>
<path d="M1605 390 c3 -5 10 -10 16 -10 5 0 9 5 9 10 0 6 -7 10 -16 10 -8 0
-12 -4 -9 -10z"/>
<path d="M2590 426 c0 -9 5 -16 10 -16 6 0 10 4 10 9 0 6 -4 13 -10 16 -5 3
-10 -1 -10 -9z"/>
<path d="M1745 400 c-3 -5 -1 -10 4 -10 6 0 11 5 11 10 0 6 -2 10 -4 10 -3 0
-8 -4 -11 -10z"/>
<path d="M1880 410 c0 -5 7 -10 15 -10 8 0 15 5 15 10 0 6 -7 10 -15 10 -8 0
-15 -4 -15 -10z"/>
<path d="M2020 400 c0 -5 4 -10 9 -10 6 0 13 5 16 10 3 6 -1 10 -9 10 -9 0
-16 -4 -16 -10z"/>
<path d="M1541 649 c-16 -46 -14 -54 15 -68 36 -16 60 -6 73 31 23 67 3 82
-22 17 -21 -53 -43 -48 -39 10 3 49 -12 54 -27 10z"/>
<path d="M2575 675 c-5 -2 -22 -6 -37 -9 -31 -7 -33 -14 -18 -67 10 -36 11
-36 50 -29 54 10 62 20 17 20 -45 0 -57 16 -17 25 16 4 30 11 30 16 0 5 -11 7
-24 3 -44 -11 -53 9 -10 21 21 6 35 13 29 16 -5 4 -14 5 -20 4z"/>
<path d="M1675 628 c-15 -64 -12 -72 28 -79 45 -7 60 7 16 16 -29 7 -30 9 -24
46 7 42 -10 57 -20 17z"/>
<path d="M2387 643 c-11 -3 -16 -11 -13 -21 2 -9 8 -32 11 -51 7 -31 9 -33 38
-27 40 8 57 23 57 52 0 43 -37 62 -93 47z m61 -25 c19 -19 14 -46 -9 -53 -25
-8 -25 -8 -34 33 -6 27 -4 32 12 32 11 0 24 -5 31 -12z"/>
<path d="M1837 633 c-12 -19 -11 -97 1 -101 7 -2 12 5 12 17 0 11 4 22 9 25
16 10 41 -5 41 -25 0 -23 16 -25 24 -3 9 24 7 84 -3 84 -5 0 -11 -9 -14 -20
-7 -27 -47 -27 -47 -1 0 21 -15 36 -23 24z"/>
<path d="M2152 608 c-21 -21 -24 -22 -33 -5 -6 9 -17 17 -26 17 -14 0 -14 -2
1 -19 9 -10 21 -31 25 -47 10 -38 31 -43 31 -8 0 15 7 35 16 45 25 27 12 42
-14 17z"/>
<path d="M2220 584 c-23 -53 -22 -75 2 -50 18 18 53 21 63 6 3 -5 13 -10 20
-10 17 0 -32 91 -53 98 -7 2 -21 -17 -32 -44z m39 -13 c-15 -5 -22 6 -14 19 6
9 10 9 16 -1 5 -8 4 -15 -2 -18z"/>
<path d="M1979 575 c-23 -47 -18 -75 7 -40 14 19 16 19 46 2 17 -10 33 -15 36
-13 2 3 -4 25 -14 50 -24 59 -46 59 -75 1z m51 -6 c0 -5 -7 -9 -15 -9 -15 0
-20 12 -9 23 8 8 24 -1 24 -14z"/>
<path d="M3002 1513 c5 -25 28 -28 28 -4 0 12 -6 21 -16 21 -9 0 -14 -7 -12
-17z"/>
</g>
</svg>
